<?xml version="1.0" standalone="no"?>
<!DOCTYPE svg PUBLIC "-//W3C//DTD SVG 1.1//EN" "http://www.w3.org/Graphics/SVG/1.1/DTD/svg11.dtd" >
<!--
2013-9-30: Created.
-->
<svg>
<metadata>
Created by iconfont
</metadata>
<defs>

<font id="iconfont" horiz-adv-x="1024" >
  <font-face
    font-family="iconfont"
    font-weight="500"
    font-stretch="normal"
    units-per-em="1024"
    ascent="896"
    descent="-128"
  />
    <missing-glyph />
    
    <glyph glyph-name="x" unicode="x" horiz-adv-x="1001"
d="M281 543q-27 -1 -53 -1h-83q-18 0 -36.5 -6t-32.5 -18.5t-23 -32t-9 -45.5v-76h912v41q0 16 -0.5 30t-0.5 18q0 13 -5 29t-17 29.5t-31.5 22.5t-49.5 9h-133v-97h-438v97zM955 310v-52q0 -23 0.5 -52t0.5 -58t-10.5 -47.5t-26 -30t-33 -16t-31.5 -4.5q-14 -1 -29.5 -0.5
t-29.5 0.5h-32l-45 128h-439l-44 -128h-29h-34q-20 0 -45 1q-25 0 -41 9.5t-25.5 23t-13.5 29.5t-4 30v167h911zM163 247q-12 0 -21 -8.5t-9 -21.5t9 -21.5t21 -8.5q13 0 22 8.5t9 21.5t-9 21.5t-22 8.5zM316 123q-8 -26 -14 -48q-5 -19 -10.5 -37t-7.5 -25t-3 -15t1 -14.5
t9.5 -10.5t21.5 -4h37h67h81h80h64h36q23 0 34 12t2 38q-5 13 -9.5 30.5t-9.5 34.5q-5 19 -11 39h-368zM336 498v228q0 11 2.5 23t10 21.5t20.5 15.5t34 6h188q31 0 51.5 -14.5t20.5 -52.5v-227h-327z" />
    

    
    <glyph glyph-name="return" unicode="&#58881;" d="M723.298-60.531l-35.469-35.469-461.583 461.583c-0.48 0.455-0.909 0.884-1.364 1.364l-6.847 6.847 1.718 1.718c-0.96 2.678-1.718 5.482-1.718 8.488s0.757 5.811 1.718 8.488l-1.718 1.718 6.872 6.872c0.429 0.48 0.833 0.884 1.313 1.313l461.608 461.608 35.469-35.469-444.531-444.531 444.531-444.531z"  horiz-adv-x="1024" />

    
    <glyph glyph-name="enter" unicode="&#58882;" d="M635.097 384.711c-4.374 3.261-7.249 4.901-9.502 7.162-105.248 105.151-210.421 210.382-315.691 315.514-10.817 10.8-16.557 22.984-13.226 38.469 6.162 28.638 40.191 40.504 62.748 21.832 2.481-2.049 4.708-4.412 6.99-6.694 114.907-114.891 229.808-229.788 344.71-344.69 20.901-20.901 20.917-42.278 0.033-63.163-115.472-115.478-230.993-230.901-346.357-346.481-11.446-11.467-24.516-16.546-40.202-12.538-27.239 6.957-37.862 39.992-20.19 61.926 2.184 2.712 4.747 5.135 7.216 7.603 104.624 104.634 209.247 209.27 313.926 313.854 2.266 2.26 5.144 3.917 9.547 7.205l0 0z"  horiz-adv-x="1024" />

    
    <glyph glyph-name="fold" unicode="&#58883;" d="M887.328 278.848 533.952 628.992c-0.512 0.512-1.216 0.672-1.76 1.152-0.128 0.128-0.16 0.32-0.288 0.448-12.576 12.416-32.832 12.352-45.28-0.192L136.512 277.056c-12.448-12.576-12.352-32.8 0.192-45.248 6.24-6.176 14.4-9.28 22.528-9.28 8.224 0 16.48 3.168 22.72 9.472l327.84 330.816 332.48-329.408c6.24-6.176 14.368-9.28 22.528-9.28 8.256 0 16.48 3.168 22.72 9.472C899.968 246.144 899.872 266.4 887.328 278.848z"  horiz-adv-x="1024" />

    
    <glyph glyph-name="down" unicode="&#58884;" d="M890.335 522.422c-12.576 12.416-32.801 12.353-45.248-0.193l-327.839-330.848-332.416 329.439c-12.576 12.447-32.801 12.353-45.281-0.193-12.447-12.576-12.353-32.832 0.193-45.281l353.312-350.112c0.544-0.544 1.247-0.673 1.792-1.183 0.127-0.127 0.16-0.287 0.287-0.416 6.239-6.176 14.4-9.28 22.528-9.28 8.224 0 16.48 3.169 22.72 9.471l350.112 353.312c12.48 12.58 12.385 32.835-0.16 45.284z"  horiz-adv-x="1024" />

    
    <glyph glyph-name="like" unicode="&#58885;" d="M658.246-128c-239.638 0-621.677 0-621.677 0-24.392 0-36.569 16.493-36.569 36.569v548.538c0 20.076 17.078 36.569 36.569 36.569h219.415c19.857 0 55.402-6.948 67.909-20.662 42.493 35.143 155.053 144.595 155.053 317.604 0 103.674 102.613 104.222 102.613 104.222 0 0 185.808 32.035 185.808-243.149 0-59.718-35.984-158.016-35.984-158.016h109.708c0 0 309.705 53.61 219.415-292.554-81.513-312.594-161.197-329.123-402.261-329.123v0zM73.138 420.538v-475.4h182.846v475.4h-182.846zM841.092 420.538h-255.984c0 0 113.84 107.952 113.84 248.524 0 140.572-61.253 156.297-100.273 156.297-39.019 0-51.307-12.47-51.307-34.741 0-259.934-218.245-406.65-218.245-406.65v-438.831c0 0 144.704 0 329.123 0 184.419 0 262.53 5.156 329.123 255.984 73.212 275.659-146.277 219.415-146.277 219.415v0z"  horiz-adv-x="1078" />

    
    <glyph glyph-name="eye" unicode="&#58886;" d="M783.058824-128C340.690824-128 0 376.048941 0 376.048941 0 376.048941 294.912 896 783.058824 896 1271.205647 896 1566.117647 376.048941 1566.117647 376.048941 1566.117647 376.048941 1225.426824-128 783.058824-128ZM1301.684706 582.957176C1144.048941 731.557647 971.173647 821.729882 777.999059 821.729882 584.764235 821.729882 411.888941 731.557647 254.253176 582.957176 198.294588 529.889882 147.456 471.582118 106.797176 413.214118 101.677176 402.552471 91.497412 391.951059 86.437647 381.349647 96.617412 370.748235 101.677176 360.146824 111.856941 349.545412 157.635765 291.177412 213.534118 238.110118 269.492706 185.042824 432.188235 36.502588 605.063529-48.429176 777.999059-48.429176 950.874353-48.429176 1123.749647 41.803294 1286.445176 185.042824 1347.463529 238.110118 1398.302118 296.478118 1444.080941 349.545412 1454.260706 360.146824 1464.440471 370.748235 1469.500235 381.349647 1464.440471 391.951059 1454.260706 402.552471 1449.140706 413.214118 1403.422118 471.582118 1357.643294 529.889882 1301.684706 582.957176ZM777.999059 131.975529C630.482824 131.975529 508.506353 254.012235 508.506353 413.214118 508.506353 567.055059 625.423059 694.392471 777.999059 694.392471 925.455059 694.392471 1047.491765 567.055059 1047.491765 413.214118 1047.491765 259.312941 930.514824 131.975529 777.999059 131.975529ZM777.999059 609.520941C671.201882 609.520941 584.764235 519.288471 584.764235 407.913412 584.764235 296.478118 671.201882 206.245647 777.999059 206.245647 884.736 206.245647 971.173647 301.778824 971.173647 407.913412 971.173647 519.288471 884.736 609.520941 777.999059 609.520941Z"  horiz-adv-x="1567" />

    
    <glyph glyph-name="comment" unicode="&#58887;" d="M1080.883 42.671h-225.393c0 0-1.451-64.881-1.451-114.659 0-32.882-21.447-56.007-55.836-56.007-16.441 0-30.208 0-30.208 0l-197.489 170.666h-513.619c-31.431 0-56.889 25.486-56.889 56.889v739.552c0 31.431 25.458 56.889 56.889 56.889h1023.995c31.431 0 56.889-25.458 56.889-56.889v-739.552c0-31.403-25.458-56.889-56.889-56.889zM1080.883 839.111h-1023.995v-739.552h540.442l199.11-170.666v170.666h284.443v739.552zM170.666 355.587h796.44v-56.889h-796.44v56.889zM170.666 497.78h796.44v-56.889h-796.44v56.889zM170.666 640.001h341.332v-56.889h-341.332v56.889z"  horiz-adv-x="1138" />

    
    <glyph glyph-name="share" unicode="&#58888;" d="M967.097-127.972h-910.195c-31.43 0-56.887 25.457-56.887 56.859v910.223c0 31.43 25.457 56.887 56.887 56.887h341.323v-56.887h-341.323v-910.223h910.195v341.352h56.887v-341.352c0-31.402-25.485-56.859-56.887-56.859zM967.097 807.68l-663.617-663.589-40.219 40.219 654.8 654.8h-292.286v56.887h341.323c31.402 0 56.887-25.457 56.887-56.887v-341.323h-56.887v309.893z"  horiz-adv-x="1024" />

    
    <glyph glyph-name="del" unicode="&#58889;" d="M970.105 653.474h-80.842v-727.579c0-29.75-24.118-53.895-53.895-53.895h-646.737c-29.777 0-53.895 24.145-53.895 53.895v727.579h-80.842c-14.875 0-26.947 12.072-26.947 26.947 0 14.902 12.072 26.947 26.947 26.947h916.211c14.875 0 26.947-12.045 26.947-26.947 0-14.875-12.072-26.947-26.947-26.947zM188.632-74.105h646.737v727.579h-646.737v-727.579zM673.684 60.632c-14.875 0-26.947 12.072-26.947 26.947v377.263c0 14.875 12.072 26.947 26.947 26.947 14.875 0 26.947-12.072 26.947-26.947v-377.263c0-14.875-12.072-26.947-26.947-26.947zM512 60.632c-14.875 0-26.947 12.072-26.947 26.947v377.263c0 14.875 12.072 26.947 26.947 26.947s26.947-12.072 26.947-26.947v-377.263c0-14.875-12.072-26.947-26.947-26.947zM350.316 60.632c-14.875 0-26.947 12.072-26.947 26.947v377.263c0 14.875 12.072 26.947 26.947 26.947 14.875 0 26.947-12.072 26.947-26.947v-377.263c0-14.875-12.072-26.947-26.947-26.947zM673.684 842.105h-323.368c-44.652 0-80.842-36.19-80.842-80.842h-53.895c0 74.429 60.335 134.737 134.737 134.737h323.368c74.402 0 134.737-60.308 134.737-134.737h-53.895c0 44.652-36.19 80.842-80.842 80.842z"  horiz-adv-x="1024" />

    
    <glyph glyph-name="applications" unicode="&#58890;" d="M1008.302 589.443l-218.611-218.611c-20.13-20.13-52.741-20.13-72.87 0l-218.582 218.611c-20.13 20.101-20.13 52.741 0 72.842l218.582 218.611c20.13 20.13 52.741 20.13 72.87 0l218.611-218.611c20.13-20.101 20.13-52.741 0-72.842zM753.669 841.177l-215.711-215.711 215.711-215.711 215.711 215.711-215.711 215.711zM369.842-127.972h-312.748c-31.417 0-56.863 25.446-56.863 56.863v312.748c0 31.388 25.446 56.863 56.863 56.863h312.748c31.388 0 56.863-25.475 56.863-56.863v-312.748c0-31.417-25.475-56.863-56.863-56.863zM369.842 241.639h-312.748v-312.748h312.748v312.748zM369.842 383.797h-312.748c-31.417 0-56.863 25.446-56.863 56.863v312.748c0 31.388 25.446 56.863 56.863 56.863h312.748c31.388 0 56.863-25.475 56.863-56.863v-312.748c0-31.417-25.475-56.863-56.863-56.863zM369.842 753.408h-312.748v-312.748h312.748v312.748zM568.863 298.503h312.748c31.388 0 56.863-25.475 56.863-56.863v-312.748c0-31.417-25.475-56.863-56.863-56.863h-312.748c-31.417 0-56.863 25.446-56.863 56.863v312.748c0 31.388 25.446 56.863 56.863 56.863zM568.863-71.108h312.748v312.748h-312.748v-312.748z"  horiz-adv-x="1024" />

    
    <glyph glyph-name="scancode" unicode="&#58891;" d="M0 355.569v56.859h1080.856v-56.859h-1080.856zM995.526 839.111h-341.323v56.887h341.323c31.402 0 56.887-25.485 56.887-56.887v-341.323h-56.887v341.323zM85.331 497.787h-56.887v341.323c0 31.402 25.457 56.887 56.887 56.887h341.323v-56.887h-341.323v-341.323zM85.331-71.113h341.323v-56.859h-341.323c-31.43 0-56.887 25.457-56.887 56.859v341.352h56.887v-341.352zM995.526 270.239h56.887v-341.352c0-31.402-25.485-56.859-56.887-56.859h-341.323v56.859h341.323v341.352z"  horiz-adv-x="1081" />

    
    <glyph glyph-name="qrcode" unicode="&#58892;" d="M1008.921-128h-30.116c-8.312 0-15.058 6.746-15.058 15.058v391.514c0 8.312 6.746 15.058 15.058 15.058h30.116c8.312 0 15.058-6.746 15.058-15.058v-391.514c0-8.312-6.746-15.058-15.058-15.058zM1008.921 353.893h-993.843c-8.312 0-15.058 6.716-15.058 15.028v30.147c0 8.312 6.746 15.058 15.058 15.058h993.843c8.312 0 15.058-6.746 15.058-15.058v-30.147c0-8.312-6.746-15.028-15.058-15.028zM963.747 474.359h-301.164c-33.279 0-60.233 26.954-60.233 60.233v301.164c0 33.249 26.954 60.233 60.233 60.233h301.164c33.249 0 60.233-26.984 60.233-60.233v-301.164c0-33.279-26.984-60.233-60.233-60.233zM963.747 835.756h-301.164v-301.164h301.164v301.164zM527.058 474.359h-30.116c-8.312 0-15.058 6.746-15.058 15.058v391.514c0 8.312 6.746 15.058 15.058 15.058h30.116c8.312 0 15.058-6.746 15.058-15.058v-391.514c0-8.312-6.746-15.058-15.058-15.058zM361.418 474.359h-301.164c-33.279 0-60.233 26.954-60.233 60.233v301.164c0 33.249 26.954 60.233 60.233 60.233h301.164c33.249 0 60.233-26.984 60.233-60.233v-301.164c0-33.279-26.984-60.233-60.233-60.233zM361.418 835.756h-301.164v-301.164h301.164v301.164zM60.253 293.63h301.164c33.249 0 60.233-26.954 60.233-60.233v-301.164c0-33.249-26.984-60.233-60.233-60.233h-301.164c-33.279 0-60.233 26.984-60.233 60.233v301.164c0 33.279 26.954 60.233 60.233 60.233zM60.253-67.737h301.164v301.164h-301.164v-301.164zM496.942 293.63h30.116c8.312 0 15.058-6.746 15.058-15.058v-301.134c0-8.342-6.746-15.058-15.058-15.058h-30.116c-8.312 0-15.058 6.716-15.058 15.058v301.134c0 8.312 6.746 15.058 15.058 15.058zM677.64 173.164h30.116c8.312 0 15.058-6.746 15.058-15.058v-271.048c0-8.312-6.746-15.058-15.058-15.058h-30.116c-8.312 0-15.058 6.746-15.058 15.058v271.048c0 8.312 6.746 15.058 15.058 15.058zM828.223 233.427h30.116c8.312 0 15.058-6.746 15.058-15.058v-331.311c0-8.312-6.746-15.058-15.058-15.058h-30.116c-8.312 0-15.058 6.746-15.058 15.058v331.311c0 8.312 6.746 15.058 15.058 15.058z"  horiz-adv-x="1024" />

    
    <glyph glyph-name="configure" unicode="&#58893;" d="M646.73 384.001c0-74.425-60.332-134.73-134.73-134.73-74.425 0-134.73 60.305-134.73 134.73 0 74.398 60.305 134.73 134.73 134.73 21.961 0 42.386-5.766 60.709-15.090l397.912 339.035-339.035-397.858c9.35-18.35 15.144-38.829 15.144-60.817zM431.162 384.001c0-44.65 36.189-80.838 80.838-80.838s80.838 36.189 80.838 80.838c0 44.65-36.189 80.838-80.838 80.838-44.65 0-80.838-36.189-80.838-80.838zM512 842.084c-252.996 0-458.082-205.086-458.082-458.082 0-252.996 205.086-458.082 458.082-458.082 252.996 0 458.082 205.086 458.082 458.082 0 78.979-19.994 153.269-55.185 218.128l35.38 45.512c46.455-77.093 73.697-167.092 73.697-263.64 0-282.772-229.23-511.974-511.974-511.974-282.772 0-511.974 229.203-511.974 511.974 0 282.745 229.203 511.974 511.974 511.974 96.575 0 186.547-27.242 263.64-73.697l-45.512-35.38c-64.859 35.192-139.149 55.185-218.128 55.185z"  horiz-adv-x="1024" />

    
    <glyph glyph-name="addfollow" unicode="&#58894;" d="M997.050 33.689h-134.736v-134.736c0-14.875-12.072-26.947-26.947-26.947-14.875 0-26.947 12.072-26.947 26.947v134.736h-134.736c-14.875 0-26.947 12.072-26.947 26.947 0 14.875 12.072 26.947 26.947 26.947h134.736v134.736c0 14.875 12.072 26.947 26.947 26.947 14.875 0 26.947-12.072 26.947-26.947v-134.736h134.736c14.875 0 26.947-12.072 26.947-26.947 0-14.875-12.072-26.947-26.947-26.947zM512 249.266h-107.789c-187.795 0-340.613-147.859-349.452-333.472h-7.276c3.827-4.635 6.413-10.348 6.413-16.842 0-14.875-12.072-26.947-26.947-26.947-14.875 0-26.947 12.072-26.947 26.947 0 6.494 2.587 12.207 6.413 16.842h-5.551c8.893 215.362 185.801 387.366 403.346 387.366h107.789c71.518 0 138.482-18.89 196.688-51.496-18.055-9.458-34.573-21.396-49.179-35.382-44.84 20.938-94.693 32.983-147.509 32.983zM458.644 357.055h-1.078c-133.658 0-241.986 108.328-241.986 241.986v54.972c0 133.658 108.328 241.986 241.986 241.986h1.078c133.658 0 241.986-108.328 241.986-241.986v-54.972c0-133.658-108.328-241.986-241.986-241.986zM646.736 653.475c0 104.178-84.453 188.631-188.631 188.631-104.178 0-188.631-84.453-188.631-188.631v-53.894c0-104.178 84.453-188.631 188.631-188.631 104.178 0 188.631 84.453 188.631 188.631v53.894z"  horiz-adv-x="1024" />

    
    <glyph glyph-name="addresslist" unicode="&#58895;" d="M952.889-128h-796.444c-31.431 0-56.889 25.458-56.889 56.889v256h-56.889c-15.701 0-28.444 12.743-28.444 28.444 0 15.701 12.743 28.444 28.444 28.444h56.889v284.444h-56.889c-15.701 0-28.444 12.743-28.444 28.444 0 15.701 12.743 28.444 28.444 28.444h56.889v256c0 31.431 25.458 56.889 56.889 56.889h796.444c31.431 0 56.889-25.458 56.889-56.889v-910.222c0-31.431-25.458-56.889-56.889-56.889zM355.556 839.111h-199.111v-256h56.889c15.701 0 28.444-12.743 28.444-28.444 0-15.701-12.743-28.444-28.444-28.444h-56.889v-284.444h56.889c15.701 0 28.444-12.743 28.444-28.444 0-15.701-12.743-28.444-28.444-28.444h-56.889v-256h199.111v910.222zM952.889 839.111h-540.444v-910.222h540.444v910.222z"  horiz-adv-x="1024" />

    
    <glyph glyph-name="phone" unicode="&#58896;" d="M722.051 896h-420.103c-43.323 0-78.769-35.446-78.769-78.769v-866.462c0-43.323 35.446-78.769 78.769-78.769h420.103c43.323 0 78.769 35.446 78.769 78.769v866.462c0 43.323-35.446 78.769-78.769 78.769zM748.308-49.231c0-14.178-12.078-26.256-26.256-26.256h-420.103c-14.178 0-26.256 12.078-26.256 26.256v52.513h472.615v-52.513zM748.308 55.795h-472.615v656.41h472.615v-656.41zM748.308 764.718h-472.615v52.513c0 14.178 12.078 26.256 26.256 26.256h420.103c14.178 0 26.256-12.078 26.256-26.256v-52.513z"  horiz-adv-x="1024" />

    
    <glyph glyph-name="binding" unicode="&#58897;" d="M1151.965 191.99h-159.995v64.030h159.995v575.983h-735.978v-575.983h255.992v-64.030h-319.99v704.011h863.974v-704.011h-63.998zM63.998-63.97h735.978v575.983h-255.992v63.966h319.99v-703.979h-863.974v703.979h223.993v-63.966h-159.995v-575.983z"  horiz-adv-x="1216" />

    
    <glyph glyph-name="home" unicode="&#58898;" d="M938.417-127.972h-312.696v397.977h-227.415v-397.977h-312.696c-31.412 0-56.854 25.442-56.854 56.854v481.666c-0.341 7.647 2.16 15.379 8.016 21.206l452.5 452.756c0.796 1.052 1.222 2.303 2.189 3.269 5.629 5.629 13.048 8.301 20.439 8.159 7.419 0.142 14.867-2.502 20.524-8.159 0.967-0.967 1.364-2.217 2.16-3.298l452.528-452.727c5.629-5.629 8.301-13.048 8.159-20.467v-482.405c0-31.412-25.471-56.854-56.854-56.854zM938.417 412.14h-11.428l-415.061 415.26-415.061-415.26h-11.257v-483.258h255.842v341.123c0 31.383 25.442 56.854 56.854 56.854h227.415c31.383 0 56.854-25.471 56.854-56.854v-341.123h255.842v483.258z"  horiz-adv-x="1024" />

    
    <glyph glyph-name="voice" unicode="&#58899;" d="M537.6 52.275v-129.075h179.2c14.131 0 25.6-11.469 25.6-25.6 0-14.131-11.469-25.6-25.6-25.6h-409.6c-14.131 0-25.6 11.469-25.6 25.6 0 14.131 11.469 25.6 25.6 25.6h179.2v129.075c-171.597 13.133-307.2 156.851-307.2 331.725 0 14.131 11.469 25.6 25.6 25.6 14.131 0 25.6-11.469 25.6-25.6 0-155.29 126.31-281.6 281.6-281.6 155.264 0 281.6 126.31 281.6 281.6 0 14.131 11.469 25.6 25.6 25.6 14.131 0 25.6-11.469 25.6-25.6 0-174.874-135.629-318.592-307.2-331.725zM716.8 691.2l-1.254-307.2c0-105.856-97.69-203.827-203.546-203.827s-204.237 94.797-204.237 200.653l-0.563 310.374c0 105.856 98.944 204.8 204.8 204.8s204.8-98.944 204.8-204.8zM665.6 691.2c0 77.696-75.904 153.6-153.6 153.6s-153.6-75.904-153.6-153.6l-1.254-308.122c0-77.696 77.158-152.115 154.854-152.115s154.163 75.341 154.163 153.037l-0.563 307.2z"  horiz-adv-x="1024" />

    
    <glyph glyph-name="lock" unicode="&#58900;" d="M916.211-128h-808.421c-29.777 0-53.895 24.145-53.895 53.895v485.053c0 29.777 24.118 53.895 53.895 53.895h80.842v107.789c0 178.607 144.788 323.368 323.368 323.368s323.368-144.761 323.368-323.368v-107.789h80.842c29.777 0 53.895-24.118 53.895-53.895v-485.053c0-29.75-24.118-53.895-53.895-53.895zM781.474 572.632c0 148.83-120.643 269.474-269.474 269.474-148.83 0-269.474-120.643-269.474-269.474v-107.789h538.947v107.789zM916.211 410.947h-808.421v-485.053h808.421v485.053zM512 303.158c14.875 0 26.947-12.072 26.947-26.947v-215.579c0-14.875-12.072-26.947-26.947-26.947s-26.947 12.072-26.947 26.947v215.579c0 14.875 12.072 26.947 26.947 26.947z"  horiz-adv-x="1024" />

    
    <glyph glyph-name="opinion" unicode="&#58901;" d="M1024 52.706h-723.034l-300.966-180.344v930.756c0 51.29 41.592 92.883 92.913 92.883h931.087c33.28 0 60.235-26.955 60.235-60.235v-722.824c0-33.25-26.955-60.235-60.235-60.235zM1024 835.765h-963.765v-542.118l-0.12-301.508 217.058 120.802h746.827v722.824zM210.824 414.118c0 16.625 13.493 30.118 30.118 30.118h180.706c16.625 0 30.118-13.493 30.118-30.118 0-16.625-13.493-30.118-30.118-30.118h-180.706c-16.625 0-30.118 13.493-30.118 30.118zM210.824 624.941c0 16.625 13.493 30.118 30.118 30.118h451.765c16.625 0 30.118-13.493 30.118-30.118 0-16.625-13.493-30.118-30.118-30.118h-451.765c-16.625 0-30.118 13.493-30.118 30.118z"  horiz-adv-x="1085" />

    
    <glyph glyph-name="clean" unicode="&#58902;" d="M921.6 384h-40.96l92.16-460.8c0-28.288-22.912-51.2-51.2-51.2h-819.2c-28.288 0-51.2 22.912-51.2 51.2l92.16 460.8h-40.96c-28.288 0-51.2 22.912-51.2 51.2v51.2c0 28.288 22.912 51.2 51.2 51.2h307.2v256c0 56.55 45.85 102.4 102.4 102.4 56.55 0 102.4-45.85 102.4-102.4v-256h307.2c28.288 0 51.2-22.912 51.2-51.2v-51.2c0-28.288-22.912-51.2-51.2-51.2zM102.4-76.8h155.238c-3.533 5.299-5.197 11.853-4.019 18.611l31.13 227.686c2.458 13.901 15.718 23.219 29.645 20.762 13.926-2.458 23.219-15.744 20.787-29.67l-31.13-227.661c-0.64-3.61-2.048-6.861-3.942-9.728h621.491l-102.4 460.8h-614.4l-102.4-460.8zM563.2 793.6c0 28.288-22.912 51.2-51.2 51.2s-51.2-22.912-51.2-51.2v-256h102.4v256zM921.6 486.4h-819.2v-51.2h819.2v51.2z"  horiz-adv-x="1024" />

    
    <glyph glyph-name="msg" unicode="&#58903;" d="M997.053 33.684h-323.368c0-89.304-72.381-161.684-161.684-161.684s-161.684 72.381-161.684 161.684h-323.368c-14.875 0-26.947 12.072-26.947 26.947s12.072 26.947 26.947 26.947h107.789v323.368c0 217.357 140.854 396.638 323.853 426.334-0.135 1.617-0.485 3.18-0.485 4.824 0 29.777 24.118 53.895 53.895 53.895 29.777 0 53.895-24.118 53.895-53.895 0-1.644-0.35-3.207-0.485-4.824 183-29.696 323.853-208.977 323.853-426.334v-323.368h107.789c14.875 0 26.947-12.072 26.947-26.947s-12.072-26.947-26.947-26.947zM512-74.105c59.527 0 107.789 48.263 107.789 107.789h-215.579c0-59.527 48.263-107.789 107.789-107.789zM835.368 410.947c0 208.357-144.788 377.263-323.368 377.263-178.58 0-323.368-168.906-323.368-377.263v-323.368h646.737v323.368z"  horiz-adv-x="1024" />

    
    <glyph glyph-name="remind" unicode="&#58904;" d="M916.79 159.632c-63.418 55.055-108.745 201.277-108.745 373.030 0 130.009-83.282 240.256-199.127 280.6-7.816 46.898-48.16 82.736-97.106 82.736-48.945 0-89.29-35.839-97.106-82.736-115.844-40.344-199.127-150.591-199.127-280.6 0-171.719-45.293-317.941-108.745-372.996-35.429-30.753-55.806-75.432-55.806-122.466 0-54.748 44.201-99.12 98.744-99.12h296.199c0-54.714 11.298-66.046 65.841-66.046 54.543 0 65.841 11.332 65.841 66.046h296.199c54.543 0 98.744 44.372 98.744 99.12 0 47-20.343 91.679-55.806 122.432zM187.557 8.529c-59.561 0-62.803 64.237-49.082 76.183 88.163 76.49 142.945 248.141 142.945 447.95 0 109.291 121.51 231.211 230.392 231.211 108.882 0 230.392-121.92 230.392-231.211 0-199.81 54.782-371.494 142.945-447.984 13.755-11.912 20.855-76.149-49.082-76.149h-648.511z"  horiz-adv-x="1024" />

    
    <glyph glyph-name="search" unicode="&#58905;" d="M978.649-88.802c-9.598-9.598-25.176-9.598-34.798 0l-279.218 279.218c-66.298-55.667-151.692-89.307-245.035-89.307-210.656 0-381.445 170.789-381.445 381.445 0 210.681 170.789 381.445 381.445 381.445 210.656 0 381.445-170.765 381.445-381.445 0-99.594-38.489-189.984-101.021-257.931l278.628-278.628c9.623-9.598 9.623-25.2 0-34.798zM751.825 482.555c0 183.488-148.739 332.227-332.227 332.227s-332.227-148.739-332.227-332.227c0-183.488 148.739-332.227 332.227-332.227 183.488 0 332.227 148.739 332.227 332.227z"  horiz-adv-x="1024" />

    
    <glyph glyph-name="invitation" unicode="&#58906;" d="M998.4 140.902c0-2.15-0.538-3.789-0.666-5.888-7.014-186.445-244.454-262.861-244.454-262.861 0 0-233.984 76.518-240.666 263.168-0.102 1.971-0.614 3.507-0.614 5.581 0 0.358 0.102 0.691 0.102 1.024 0 0.435-0.102 0.845-0.102 1.306h0.23c1.28 73.242 61.824 138.496 136.576 138.496 43.213 0 81.306-22.195 106.394-54.784 25.088 32.589 63.181 54.784 106.394 54.784 74.752 0 135.296-65.254 136.55-138.496h0.256c0-0.461-0.102-0.845-0.102-1.306 0-0.333 0.102-0.666 0.102-1.024zM947.2 126.618h-0.205c-0.998 54.938-27.187 103.782-76.595 103.782-34.125 0-95.411-42.163-115.2-66.586-19.789 24.422-81.075 66.586-115.2 66.586-43.827 0-75.597-48.845-76.621-103.782h-0.179c0-0.333 0.077-0.64 0.077-0.973 0-0.256-0.077-0.512-0.077-0.768 0-1.536 0.41-2.714 0.486-4.198 5.274-139.981 190.003-197.376 190.003-197.376 0 0 187.443 57.344 192.973 197.171 0.102 1.562 0.538 2.79 0.538 4.403 0 0.256-0.077 0.512-0.077 0.768 0 0.358 0.077 0.64 0.077 0.973zM621.645 351.872l-1.638-1.92c-0.051-0.077-0.102-0.128-0.154-0.205-1.562-4.915-1.843-10.752-1.382-16.947h-55.27v49.331c60.493 39.040 102.4 122.496 102.4 219.469 0 134.323-80.23 243.2-179.2 243.2-98.97 0-179.2-108.877-179.2-243.2 0-96.973 41.907-180.429 102.4-219.469v-117.734c-63.923-43.034-232.602-157.158-307.2-213.197-29.235-61.875-21.606-115.994 0-128 32.102 0 144.614 0 256 0 35.123 0 70.042 0 102.4 0v-51.2c-182.195 0-354.611 0-354.611 0v0c-7.962 0-12.877 0-14.234 0-46.157 0-63.667 34.304-65.152 94.208-0.819 5.734-1.203 11.597-1.101 17.613l0.102 8.243c0.051 4.941 0.102 9.958 0.256 15.002 0.026 7.526 0.486 15.872 2.176 25.011 0.538 3.43 1.178 6.861 1.997 10.317 9.754 40.602 38.323 67.917 64.307 90.368 35.661 30.771 77.722 56.883 136.422 84.659 28.109 13.261 36.045 29.773 73.19 42.701 16 5.53 32.64 22.861 42.496 44.16 7.757 16.794 10.086 33.536 6.298 45.466-0.051 0.077-0.102 0.128-0.179 0.205l-1.613 1.92c-44.314 53.709-79.539 101.376-96.256 184.141-13.389 66.483-11.469 129.28 5.709 186.675 26.394 87.962 83.328 145.178 164.659 165.402 12.288 3.072 24.243 5.222 36.045 6.477v1.434l25.088-0.026 25.088 0.026v-1.434c11.802-1.254 23.757-3.405 36.045-6.477 81.331-20.224 138.266-77.44 164.634-165.402 17.203-57.395 19.123-120.192 5.734-186.675-16.717-82.765-51.968-130.432-96.256-184.141z"  horiz-adv-x="1024" />

    
    <glyph glyph-name="hotel" unicode="&#58907;" d="M1163.601-127.969h-1148.087c-8.564 0-15.515 6.92-15.515 15.484v31.029c0 8.595 6.951 15.515 15.515 15.515h77.573c0 0 0 0.031 0 0.031v899.852c0 34.256 27.771 62.059 62.059 62.059h589.558c34.256 0 62.059-27.802 62.059-62.059v-155.147h217.206c34.256 0 62.059-27.802 62.059-62.059v-682.646c0 0 0-0.031 0-0.031h77.573c8.564 0 15.515-6.92 15.515-15.515v-31.029c0-8.564-6.951-15.484-15.515-15.484zM341.323-65.941h217.206v310.325h-217.206v-310.325zM744.705-65.91v899.852h-589.558v-899.883h124.117c0 0 0 0.031 0 0.031v310.263c0 34.287 27.771 62.059 62.059 62.059h217.206c34.256 0 62.059-27.771 62.059-62.059v-310.263c0 0 0-0.031 0-0.031l124.117 0.031zM1023.969 616.736h-217.206v-682.677h217.206v682.677zM248.235 477.104v31.029c0 8.564 6.951 15.515 15.515 15.515h372.352c8.564 0 15.515-6.951 15.515-15.515v-31.029c0-8.564-6.951-15.515-15.515-15.515h-372.352c-8.564 0-15.515 6.951-15.515 15.515zM636.102 647.765h-372.352c-8.564 0-15.515 6.92-15.515 15.484v31.029c0 8.595 6.951 15.515 15.515 15.515h372.352c8.564 0 15.515-6.92 15.515-15.515v-31.029c0-8.564-6.951-15.484-15.515-15.484z"  horiz-adv-x="1180" />

    
    <glyph glyph-name="menpiao" unicode="&#58908;" d="M1024-7.499294 391.529412-7.499294 361.411765-7.499294 301.176471-7.499294C301.176471 25.750588 274.191059 52.736 240.941176 52.736 207.661176 52.736 180.705882 25.750588 180.705882-7.499294L120.470588-7.499294 90.352941-7.499294 60.235294-7.499294C26.955294-7.499294 0 19.456 0 52.736L0 715.294118C0 748.574118 26.955294 775.529412 60.235294 775.529412L90.352941 775.529412 120.470588 775.529412 180.705882 775.529412C180.705882 742.279529 207.661176 715.324235 240.941176 715.324235 274.191059 715.324235 301.176471 742.279529 301.176471 775.529412L361.411765 775.529412 391.529412 775.529412 1024 775.529412C1057.249882 775.529412 1084.235294 748.574118 1084.235294 715.294118L1084.235294 52.736C1084.235294 19.456 1057.249882-7.499294 1024-7.499294ZM1024 715.324235 344.696471 715.324235C344.696471 715.324235 344.696471 715.324235 344.696471 715.324235 323.824941 679.454118 285.424941 655.088941 240.941176 655.088941 196.457412 655.088941 158.057412 679.454118 137.185882 715.324235L60.235294 715.324235 60.235294 52.736 137.185882 52.736C158.057412 88.576 196.457412 112.971294 240.941176 112.971294 285.424941 112.971294 323.824941 88.576 344.696471 52.736L1024 52.736 1024 715.324235ZM496.941176 504.500706 888.470588 504.500706C896.783059 504.500706 903.529412 497.754353 903.529412 489.441882L903.529412 459.324235C903.529412 451.011765 896.783059 444.265412 888.470588 444.265412L496.941176 444.265412C488.628706 444.265412 481.882353 451.011765 481.882353 459.324235L481.882353 489.441882C481.882353 497.754353 488.628706 504.500706 496.941176 504.500706ZM496.941176 323.794824 888.470588 323.794824C896.783059 323.794824 903.529412 317.048471 903.529412 308.736L903.529412 278.588235C903.529412 270.275765 896.783059 263.559529 888.470588 263.559529L496.941176 263.559529C488.628706 263.559529 481.882353 270.275765 481.882353 278.588235L481.882353 308.736C481.882353 317.048471 488.628706 323.794824 496.941176 323.794824ZM256 173.206588 225.882353 173.206588C217.569882 173.206588 210.823529 179.952941 210.823529 188.265412L210.823529 338.853647C210.823529 347.166118 217.569882 353.912471 225.882353 353.912471L256 353.912471C264.312471 353.912471 271.058824 347.166118 271.058824 338.853647L271.058824 188.265412C271.058824 179.952941 264.312471 173.206588 256 173.206588ZM256 414.117647 225.882353 414.117647C217.569882 414.117647 210.823529 420.864 210.823529 429.176471L210.823529 579.794824C210.823529 588.107294 217.569882 594.853647 225.882353 594.853647L256 594.853647C264.312471 594.853647 271.058824 588.107294 271.058824 579.794824L271.058824 429.176471C271.058824 420.864 264.312471 414.117647 256 414.117647Z"  horiz-adv-x="1085" />

    
    <glyph glyph-name="chart" unicode="&#58909;" d="M1189.611-128h-1174.553c-8.312 0-15.058 6.746-15.058 15.058v30.117c0 8.312 6.746 15.058 15.058 15.058h105.409v542.132c0 33.249 26.954 60.233 60.233 60.233h240.934v120.437c0 33.279 26.954 60.233 60.233 60.233h240.934v120.497c0 33.249 26.954 60.233 60.233 60.233h240.934c33.249 0 60.233-26.985 60.233-60.233v-903.532h105.409c8.312 0 15.058-6.746 15.058-15.058v-30.117c0-8.312-6.746-15.058-15.058-15.058zM421.634 474.365h-240.934v-542.132h240.934v542.132zM722.802 655.065h-240.934v-722.832h240.934v722.832zM1023.969 835.736h-240.934v-903.502h240.934v903.502z"  horiz-adv-x="1205" />

    
    <glyph glyph-name="tel" unicode="&#58910;" d="M969.154 0.329l-56.649-58.441c-43.081-44.398-103.022-69.851-164.498-69.851-26.258 0-52.187 4.535-76.983 13.458-306.907 110.629-550.034 364.837-650.35 680.046-30.135 94.72 1.829 198.949 79.543 259.291l49.518 38.473c27.502 21.394 60.416 32.731 95.159 32.731 59.099 0 112.64-33.317 139.703-86.93l83.749-165.778c7.936-15.762 12.142-33.39 12.142-51.054 0-28.087-10.277-54.93-28.928-75.666l-17.445-19.31c-17.335-19.2-21.102-47.616-9.362-70.766 28.599-56.466 73.033-101.705 128.512-130.816 22.345-11.776 51.090-7.79 69.522 9.509l19.017 17.701c33.024 30.976 84.553 38.107 124.453 17.189l162.816-85.211c52.699-27.611 85.467-82.103 85.467-142.299 0-42.24-16.091-82.139-45.385-112.274zM941.396 128c0 52.626-219.429 146.286-219.429 146.286-30.793 11.264-73.143-36.571-73.143-36.571-76.288-56.503-130.011-13.641-146.286 0-47.616 39.826-112.347 125.915-146.286 182.857-25.381 42.679-14.519 93.257 0 109.714 0 0 49.152 42.423 36.571 73.143-38.363 95.195-98.231 236.178-146.286 219.429-41.691-13.751-216.283-71.643-137.326-283.246 140.069-375.077 431.579-526.080 609.024-594.432 123.721-9.106 232.997 147.090 223.159 182.821z"  horiz-adv-x="1024" />

    
    <glyph glyph-name="upward" unicode="&#58911;" d="M1009.763 839.111h-995.526c-7.85 0-14.222 6.343-14.222 14.222v28.444c0 7.85 6.371 14.222 14.222 14.222h995.526c7.85 0 14.222-6.371 14.222-14.222v-28.444c0-7.879-6.371-14.222-14.222-14.222zM473.8 698.912c2.873 2.873 6.201 4.921 9.756 6.314v5.888c0 7.85 6.371 14.222 14.222 14.222h28.444c7.85 0 14.222-6.371 14.222-14.222v-5.888c3.555-1.394 6.883-3.442 9.756-6.314l447.361-447.361c11.093-11.121 11.093-29.126 0-40.248-11.121-11.093-29.126-11.093-40.219 0l-416.898 416.898v-741.951c0-7.85-6.371-14.222-14.222-14.222h-28.444c-7.85 0-14.222 6.371-14.222 14.222v741.951l-416.898-416.898c-11.093-11.093-29.126-11.093-40.219 0-11.121 11.121-11.121 29.126 0 40.248l447.361 447.361z"  horiz-adv-x="1024" />

    
    <glyph glyph-name="line" unicode="&#58912;" d="M1051.859-127.97l-323.644 99.087-372.194-99.087-323.644 99.087c-17.89 0-32.376 14.788-32.376 33.039v858.835c0 18.251 14.487 33.009 32.376 33.009l323.644-99.087 372.194 99.087 323.644-99.087c17.89 0 32.376-14.788 32.376-33.009v-858.865c0-18.221-14.487-33.009-32.376-33.009zM331.294-52.706v805.647l-270.728 82.763v-809.924l271.631-83.034c-0.452 1.476-0.904 2.952-0.904 4.548zM388.096-61.862l304.61 80.956v809.894l-301.176-80.053v-801.641c0-3.524-1.385-6.596-3.433-9.156zM1023.639 742.249l-270.697 82.733v-809.894l270.697-82.763v809.924z"  horiz-adv-x="1085" />

    
    <glyph glyph-name="goldcup" unicode="&#58913;" d="M798.71 396.050c-31.67-105.432-134.432-194.882-250.14-194.882v-255.991h109.71c47.139 0 109.71-26.038 109.71-73.14h-511.982c0 0 26.001 73.14 73.14 73.14h146.281v255.991c-115.745 0-218.47 89.451-250.14 194.882-98.886 53.575-225.272 140.722-225.272 243.959 0 83.38 30.975 110.186 73.14 109.71 40.922-0.512 146.281 0 146.281 0v146.281h585.122v-146.281c0 0 102.031 0 146.281 0 41.653 0 73.14-24.721 73.14-109.71 0-108.467-126.386-190.384-225.272-243.959zM213.332 605.085c0 0-15.030 73.506-85.318 77.565-23.88 1.426-42.897-12.288-42.677-42.641 0.695-84.404 127.996-127.996 127.996-127.996v93.071zM731.421 822.86h-438.842v-292.598c-1.353-170.197 101.592-255.954 219.421-255.954s219.421 90.438 219.421 255.954v292.598zM895.987 682.65c-70.324-3.072-85.318-120.243-85.318-120.243v-50.394c0 0 126.13 44.616 127.996 127.996 0.695 31.816-10.825 44.067-42.677 42.641z"  horiz-adv-x="1024" />

    
    <glyph glyph-name="broadcast" unicode="&#58914;" d="M648.49-117.692v70.344c195.605 46.282 341.311 221.579 341.311 431.348 0 209.735-145.705 385.032-341.311 431.348v70.31c233.661-47.442 409.573-254.003 409.573-501.658 0-247.689-175.911-454.25-409.573-501.692zM68.262 179.214c-37.715 0-68.262 30.547-68.262 68.262v273.048c0 37.681 30.547 68.262 68.262 68.262h170.655l307.18 307.18v-1023.932l-307.18 307.18h-170.655zM477.835 42.655v682.621l-204.786-204.786h-204.786v-273.048h204.786l204.786-204.786zM819.145 401.066c0-117.616-70.105-218.609-170.655-264.174v77.716c61.436 39.456 102.393 107.991 102.393 186.458 0 78.433-40.957 146.968-102.393 186.424v77.716c100.55-45.565 170.655-146.559 170.655-264.14z"  horiz-adv-x="1059" />

    
    <glyph glyph-name="flagfold" unicode="&#58915;" d="M847.99 128.024h-191.994c-33.919 0-63.998 28.639-63.998 63.998v31.999h-287.991v-287.991c0-35.327-28.639-63.998-63.998-63.998h-63.998c-35.359 0-63.998 28.671-63.998 63.998v895.973c0 35.359 28.639 63.998 63.998 63.998h63.998c35.359 0 63.998-28.639 63.998-63.998v-31.999h287.991c35.359 0 63.998-28.671 63.998-63.998v-63.998h191.994c35.359 0 63.998-28.671 63.998-63.998v-415.988c0-35.359-28.639-63.998-63.998-63.998zM240.008 224.021v575.983c0 17.663-14.336 31.999-31.999 31.999-17.663 0-31.999-14.336-31.999-31.999v-831.975c0-17.663 14.336-31.999 31.999-31.999 17.663 0 31.999 14.336 31.999 31.999v255.992zM591.998 704.007c0 17.663-14.336 31.999-31.999 31.999h-255.992c0-17.023 0-14.336 0-31.999v-383.988c0-17.663 0-13.088 0-31.999h255.992c17.663 0 31.999 14.336 31.999 31.999v383.988zM847.99 576.011c0 17.695-14.336 31.999-31.999 31.999h-159.995c0-17.023 0-14.304 0-31.999v-378.517c0 0.512 0-0.768 0-5.472h159.995c17.663 0 31.999-17.663 31.999 0v383.988z"  horiz-adv-x="1024" />

    
    <glyph glyph-name="lists" unicode="&#58916;" d="M895.985-127.957h-767.969c-47.145 0-85.33 38.185-85.33 85.33v853.257c0 47.145 38.185 85.373 85.33 85.373h767.969c47.102 0 85.33-38.228 85.33-85.373v-853.257c0-47.145-38.228-85.33-85.33-85.33zM895.985 810.672h-767.969v-853.342h767.969v853.342zM277.343 426.687h469.315c11.776 0 21.332-9.557 21.332-21.332v-42.708c0-11.776-9.557-21.332-21.332-21.332h-469.315c-11.776 0-21.332 9.557-21.332 21.332v42.708c0 11.776 9.557 21.332 21.332 21.332zM277.343 213.32h469.315c11.776 0 21.332-9.557 21.332-21.332v-42.665c0-11.776-9.557-21.332-21.332-21.332h-469.315c-11.776 0-21.332 9.557-21.332 21.332v42.665c0 11.776 9.557 21.332 21.332 21.332zM746.657 554.639h-469.315c-11.776 0-21.332 9.557-21.332 21.332v42.708c0 11.776 9.557 21.332 21.332 21.332h469.315c11.776 0 21.332-9.557 21.332-21.332v-42.708c0-11.776-9.557-21.332-21.332-21.332z"  horiz-adv-x="1024" />

    
    <glyph glyph-name="coins" unicode="&#58917;" d="M512 896.001c-252.078 0-457.127-100.495-457.127-224.029v-575.943c0-123.497 223.334-224.029 475.412-224.029s438.842 100.531 438.842 224.029v575.943c0 123.534-205.049 224.029-457.127 224.029zM493.715 822.86c236.975 0 402.272-108.028 402.272-146.317 0-38.289-128.727-109.71-365.701-109.71-236.975 0-402.272 71.421-402.272 109.71 0 38.289 128.727 146.317 365.701 146.317zM895.987 91.457c0-38.289-128.727-146.281-365.701-146.281s-402.272 107.955-402.272 146.244v182.887c83.782-52.222 256.576-73.177 402.272-73.177 145.732 0 281.919 20.955 365.701 73.177v-182.851zM530.285 274.308c-236.975 0-402.272 71.421-402.272 109.674v182.851c83.782-52.186 256.576-73.14 402.272-73.14 145.732 0 281.919 20.955 365.701 73.14v-182.851c0-38.252-128.727-109.674-365.701-109.674z"  horiz-adv-x="1024" />

    
    <glyph glyph-name="shezhi" unicode="&#58918;" d="M1019.799983 446.679579C1020.689246 439.269053 1021.335983 431.804632 1021.98272 424.313263 1023.033667 410.974316 1024.03072 397.635368 1024.03072 384.026947 1024.03072 370.418526 1023.033667 357.079579 1021.98272 343.740632 1021.335983 336.276211 1020.689246 328.784842 1019.799983 321.401263 1019.799983 321.401263 1019.799983 321.401263 1019.826931 321.401263 1017.428615 301.891368 1013.817667 282.812632 1009.317457 264.030316 960.919983 252.065684 914.866931 219.028211 885.602088 168.340211 856.337246 117.652211 850.759141 61.224421 864.556194 13.365895 850.489667-0.026947 835.61472-12.503579 820.093036-24.225684 820.093036-24.198737 820.066088-24.198737 820.066088-24.171789 795.867352-42.442105 770.051773-58.664421 742.834931-72.542316 742.700194-72.623158 742.538509-72.704 742.403773-72.757895 729.091773-79.548632 715.429457-85.746526 701.443773-91.351579 700.311983-91.809684 699.126299-92.16 697.994509-92.618105 684.57472-97.899789 670.939352-102.723368 656.980615-106.846316 622.434088-70.790737 570.695141-47.346526 512.03072-47.346526 453.366299-47.346526 401.627352-70.817684 367.080825-106.846316 367.080825-106.846316 367.080825-106.846316 367.080825-106.846316 353.122088-102.723368 339.48672-97.899789 326.066931-92.618105 324.908194-92.16 323.749457-91.809684 322.59072-91.351579 308.631983-85.746526 294.969667-79.548632 281.657667-72.757895 281.495983-72.704 281.361246-72.623158 281.226509-72.542316 254.009667-58.664421 228.194088-42.442105 203.995352-24.171789 203.968404-24.198737 203.968404-24.198737 203.968404-24.225684 188.44672-12.503579 173.544825-0.026947 159.478299 13.365895 173.302299 61.224421 167.724194 117.652211 138.459352 168.340211 109.194509 219.028211 63.114509 252.065684 14.743983 264.030316 10.243773 282.812632 6.632825 301.891368 4.234509 321.374316 4.261457 321.374316 4.261457 321.374316 4.261457 321.374316 3.372194 328.784842 2.725457 336.276211 2.051773 343.740632 1.027773 357.079579 0.03072 370.418526 0.03072 384.026947 0.03072 397.635368 1.027773 410.974316 2.051773 424.313263 2.725457 431.804632 3.372194 439.269053 4.261457 446.679579 4.261457 446.679579 4.261457 446.679579 4.234509 446.679579 6.632825 466.162526 10.243773 485.268211 14.743983 504.023579 63.114509 515.988211 109.167562 549.025684 138.432404 599.713684 167.697246 650.401684 173.275352 706.802526 159.478299 754.688 173.544825 768.080842 188.419773 780.530526 203.941457 792.279579 203.941457 792.252632 203.968404 792.225684 203.968404 792.198737 228.167141 810.469053 254.009667 826.718316 281.226509 840.623158 281.361246 840.677053 281.495983 840.730947 281.63072 840.811789 294.969667 847.602526 308.631983 853.800421 322.617667 859.405474 323.749457 859.863579 324.908194 860.213895 326.039983 860.672 339.459773 865.953684 353.122088 870.777263 367.107773 874.900211 401.654299 838.871579 453.393246 815.427368 512.03072 815.427368 570.668194 815.427368 622.407141 838.871579 656.953667 874.900211 670.939352 870.777263 684.57472 865.953684 698.021457 860.672 699.153246 860.213895 700.311983 859.863579 701.443773 859.405474 715.429457 853.800421 729.091773 847.602526 742.43072 840.811789 742.565457 840.730947 742.700194 840.677053 742.834931 840.623158 770.051773 826.718316 795.867352 810.469053 820.093036 792.198737 820.093036 792.225684 820.093036 792.252632 820.119983 792.279579 835.641667 780.530526 850.516615 768.080842 864.583141 754.688 850.786088 706.802526 856.364194 650.401684 885.629036 599.713684 914.893878 549.025684 960.946931 515.988211 1009.290509 504.023579 1013.817667 485.268211 1017.428615 466.189474 1019.799983 446.679579 1019.799983 446.679579 1019.799983 446.679579 1019.799983 446.679579ZM963.291352 462.174316C913.923773 482.654316 869.218088 520.488421 839.010088 572.820211 808.936825 624.909474 798.481246 682.253474 805.218088 735.043368 765.201246 768.431158 719.579352 795.378526 669.699773 813.675789 627.311562 781.285053 572.311983 761.586526 512.03072 761.586526 451.749457 761.586526 396.749878 781.285053 354.361667 813.675789 304.482088 795.378526 258.860194 768.431158 218.816404 735.043368 225.580194 682.253474 215.097667 624.909474 185.024404 572.820211 154.843352 520.488421 110.137667 482.654316 60.770088 462.174316 56.377667 436.762947 53.925457 410.704842 53.925457 384.026947 53.925457 357.349053 56.377667 331.290947 60.770088 305.879579 110.137667 285.426526 154.843352 247.565474 185.078299 195.260632 215.151562 143.171368 225.607141 85.800421 218.843352 32.983579 258.860194-0.377263 304.482088-27.324632 354.33472-45.621895 396.722931-13.231158 451.749457 6.494316 512.03072 6.494316 572.311983 6.494316 627.338509-13.231158 669.72672-45.621895 719.579352-27.324632 765.174299-0.377263 805.218088 32.983579 798.427352 85.800421 808.909878 143.171368 838.983141 195.260632 869.191141 247.565474 913.896825 285.426526 963.291352 305.906526 967.656825 331.290947 970.135983 357.349053 970.135983 384.026947 970.135983 410.704842 967.656825 436.762947 963.291352 462.174316ZM512.03072 195.664842C407.986931 195.664842 323.641667 280.010105 323.641667 384.053895 323.641667 488.070737 407.986931 572.416 512.03072 572.416 616.047562 572.416 700.392825 488.070737 700.392825 384.053895 700.392825 280.010105 616.047562 195.664842 512.03072 195.664842ZM512.03072 518.440421C437.79072 518.440421 377.644194 458.266947 377.644194 384.053895 377.644194 309.813895 437.79072 249.640421 512.03072 249.640421 586.243773 249.640421 646.417246 309.813895 646.417246 384.053895 646.417246 458.266947 586.243773 518.440421 512.03072 518.440421Z"  horiz-adv-x="1025" />

    
    <glyph glyph-name="clock" unicode="&#58919;" d="M512-128c-282.759 0-512 229.241-512 512s229.241 512 512 512c282.759 0 512-229.241 512-512 0-282.759-229.241-512-512-512zM512 842.105c-253.009 0-458.105-205.096-458.105-458.105s205.096-458.105 458.105-458.105c253.009 0 458.105 205.096 458.105 458.105 0 253.009-205.096 458.105-458.105 458.105zM736.66 279.525l-235.143 79.656c0 0 0 0-0.027 0l-3.503 1.186c-9.971 5.767-14.686 16.923-12.935 27.648v319.353c0 14.875 12.072 26.947 26.947 26.947s26.947-12.072 26.947-26.947v-305.071l224.66-76.099c12.881-7.437 17.3-23.929 9.863-36.81-7.464-12.881-23.929-17.3-36.81-9.863z"  horiz-adv-x="1024" />

    
    <glyph glyph-name="write" unicode="&#58920;" d="M1252.318 777.66l-108.817 108.919c-12.8 12.8-35.533 12.8-48.333 0l-229.035-228.727-797.867-0.785c-35.669 0-68.267-37.82-68.267-68.267v-648.533c0-36.932 36.489-68.267 68.267-68.267h955.733c31.744 0 68.267 33.929 68.267 68.267l0.478 628.497 159.573 160.597c13.38 13.38 13.517 35.157 0 48.299zM1024.444-59.665h-956.553v649.25h729.907l-189.611-189.986c-4.267-4.233-7.509-9.694-8.875-15.872l-29.73-101.41h-297.882c-18.807 0-34.167-15.36-34.167-34.133 0-18.944 15.36-34.133 34.167-34.133h324.54c1.707 0 67.311-1.502 112.060 9.421 41.95 10.411 48.777 10.547 57.037 19.115l259.106 257.741v-559.991zM723.831 297.54l-80.623-19.968 20.002 80.555 456.226 455.885 60.45-60.416-456.055-456.055z"  horiz-adv-x="1263" />

    
    <glyph glyph-name="refund" unicode="&#58921;" d="M395.815 592.581h94.878c4.962-15.99 11.028-28.121 26.466-54.036l81.644-140.13 81.684 139.579c15.439 25.915 22.055 39.7 26.466 54.587h95.429c-7.168-9.374-29.223-40.802-39.148-56.793l-76.13-121.383h30.878c24.812 0 39.739 1.103 57.935 4.411v-62.897c-18.747 3.308-33.674 4.411-57.935 4.411h-64.551l-18.196-28.672v-15.99h81.644c24.812 0 38.636 1.103 57.935 4.411v-62.897c-18.747 3.308-33.674 4.411-57.935 4.411h-81.644v-37.534c0-31.429 1.103-48.522 4.411-70.617h-81.644c2.757 21.543 4.411 43.599 4.411 70.617v37.534h-83.298c-24.812 0-39.188-1.103-57.935-4.411v62.897c19.298-3.308 32.571-4.411 57.935-4.411h83.298v16.542l-18.196 28.121h-64c-25.364 0-39.188-1.103-57.935-4.411v62.897c18.196-3.308 32.571-4.411 57.935-4.411h30.878l-76.682 121.383c-15.99 24.812-30.326 46.316-38.597 56.793zM591.99-128c-151.828 0-287.823 66.481-381.558 171.441l62.267 48.482c79.202-86.567 192.748-141.154 319.291-141.154 239.262 0 433.231 193.969 433.231 433.231 0 239.262-193.969 433.231-433.231 433.231-195.19 0-359.818-129.26-413.932-306.767l65.378 69.002c13.942 14.69 36.194 15.045 49.703 0.788 13.47-14.257 13.115-37.73-0.827-52.421l-126.188-133.159c-9.728-10.279-23.473-13.076-35.486-9.255-14.415-3.072-29.617 3.269-37.376 17.566l-88.143 162.068c-9.728 17.92-3.978 40.802 12.918 51.161 16.857 10.319 38.4 4.175 48.128-13.706l36.706-67.505c64.473 209.014 258.954 360.999 489.118 360.999 282.782 0 512-229.218 512-512 0-282.782-229.218-512-512-512z"  horiz-adv-x="1105" />

    
    <glyph glyph-name="calendar" unicode="&#58922;" d="M1024-128h-945.231c-43.52 0-78.769 35.249-78.769 78.769v787.692c0 43.52 35.249 78.769 78.769 78.769h157.538v-78.769h-157.538v-118.154h945.231v118.154h-157.538v78.769h157.538c43.52 0 78.769-35.249 78.769-78.769v-787.692c0-43.52-35.249-78.769-78.769-78.769zM1024 541.538h-945.231v-590.769h945.231v590.769zM586.476 445.637c28.16 0 36.431 0.551 56.281 2.757-3.308-32.571-4.411-57.935-4.411-91.018v-279.158c0-29.263 1.103-49.113 4.411-71.719h-83.298c3.308 21.504 4.411 43.008 4.411 71.719v303.97h-26.466c-20.441 0-36.431-1.103-56.832-3.308v70.065c17.093-2.757 29.223-3.308 55.178-3.308h50.727zM787.692 659.692c-21.74 0-39.385 17.644-39.385 39.385v157.538c0 21.74 17.644 39.385 39.385 39.385 21.74 0 39.385-17.644 39.385-39.385v-157.538c0-21.74-17.644-39.385-39.385-39.385zM393.846 817.231h315.077v-78.769h-315.077v78.769zM315.077 659.692c-21.74 0-39.385 17.644-39.385 39.385v157.538c0 21.74 17.644 39.385 39.385 39.385 21.74 0 39.385-17.644 39.385-39.385v-157.538c0-21.74-17.644-39.385-39.385-39.385z"  horiz-adv-x="1103" />

    
    <glyph glyph-name="comment-w" unicode="&#58923;" d="M1031.975 693.746l-530.511-551.726h-192.871v192.871l532.439 549.798c15.083 15.083 39.5 15.083 54.582 0l136.36-136.36c15.083-15.083 15.083-39.5 0-54.582zM868.305 802.872l-482.563-506.556v-77.148h77.148l487.269 501.85-81.854 81.854zM540.039 797.819h-462.89v-848.632h848.632v462.89c0 27.966 8.178 33.752 36.144 33.752 28.005 0 41.004-5.786 41.004-33.752v-462.89c0-37.263-39.886-77.148-77.148-77.148h-848.632c-37.263 0-77.148 39.886-77.148 77.148v848.632c0 37.301 39.886 77.148 77.148 77.148h462.89c27.966 0 33.752-13.038 33.752-41.004 0-27.928-5.786-36.144-33.752-36.144z"  horiz-adv-x="1045" />

    
    <glyph glyph-name="cir-alert" unicode="&#58924;" d="M512-128c-282.766 0-512 229.234-512 512s229.234 512 512 512c282.766 0 512-229.234 512-512 0-282.766-229.234-512-512-512zM512 839.111c-251.364 0-455.111-203.748-455.111-455.111 0-251.335 203.748-455.111 455.111-455.111 251.335 0 455.111 203.776 455.111 455.111 0 251.364-203.776 455.111-455.111 455.111zM483.556 156.444h56.889v-85.333h-56.889v85.333zM483.556 696.889h56.889v-483.556h-56.889v483.556z"  horiz-adv-x="1024" />

    
    <glyph glyph-name="cir-star" unicode="&#58925;" d="M615.987 512.051l-103.987 205.005-103.987-205.005-228.992-39.526 164.736-166.195-37.555-229.427 205.798 102.272 205.798-102.272-37.555 229.427 164.736 166.195-228.992 39.526zM654.438 153.677l-142.438 73.651-144-73.728 27.52 165.248-114.048 119.68 158.515 28.442 72.013 147.61 72.013-147.61 158.49-28.442-114.022-119.68 25.958-165.171zM512 896c-282.778 0-512-229.222-512-512s229.222-512 512-512 512 229.222 512 512-229.222 512-512 512zM512-76.8c-254.49 0-460.8 206.31-460.8 460.8s206.31 460.8 460.8 460.8c254.49 0 460.8-206.31 460.8-460.8s-206.31-460.8-460.8-460.8z"  horiz-adv-x="1024" />

    
    <glyph glyph-name="cir-cny" unicode="&#58926;" d="M512 896c-282.778 0-512-229.222-512-512s229.222-512 512-512 512 229.222 512 512-229.222 512-512 512zM512-76.8c-254.49 0-460.8 206.31-460.8 460.8s206.31 460.8 460.8 460.8 460.8-206.31 460.8-460.8-206.31-460.8-460.8-460.8zM741.094 664.32c-10.010 10.010-26.189 10.010-36.198 0l-193.536-193.536-188.288 188.314c-9.446 9.446-24.755 9.446-34.202 0-9.446-9.446-9.446-24.755 0-34.202l189.696-189.696-171.366-0c-14.131 0-25.6-11.443-25.6-25.6s11.469-25.6 25.6-25.6h179.2v-102.4h-179.2c-14.131 0-25.6-11.443-25.6-25.6s11.469-25.6 25.6-25.6h179.2v-102.4c0-14.131 11.469-25.6 25.6-25.6 14.157 0 25.6 11.469 25.6 25.6v102.4h179.2c14.157 0 25.6 11.443 25.6 25.6s-11.443 25.6-25.6 25.6h-179.2v102.4h179.2c14.157 0 25.6 11.443 25.6 25.6s-11.443 25.6-25.6 25.6h-168.602l192.896 192.922c10.010 9.984 10.010 26.214 0 36.198z"  horiz-adv-x="1024" />

    
    <glyph glyph-name="cir-umbrella" unicode="&#58927;" d="M512 896c-282.778 0-512-229.222-512-512s229.222-512 512-512 512 229.222 512 512-229.222 512-512 512zM512-76.8c-254.49 0-460.8 206.31-460.8 460.8s206.31 460.8 460.8 460.8 460.8-206.31 460.8-460.8-206.31-460.8-460.8-460.8zM486.4 128c0-14.131-11.469-25.6-25.6-25.6s-25.6 11.469-25.6 25.6c0 14.157-11.469 25.6-25.6 25.6s-25.6-11.443-25.6-25.6c0-42.419 34.381-76.8 76.8-76.8s76.8 34.381 76.8 76.8v230.4h-51.2l0-230.4zM537.6 664.294v26.906c0 14.157-11.443 25.6-25.6 25.6-14.131 0-25.6-11.443-25.6-25.6v-26.906c-171.802-13.107-307.2-156.339-307.2-331.494h51.2c0 42.419 34.381 76.8 76.8 76.8s76.8-34.381 76.8-76.8h51.2c0 42.419 34.381 76.8 76.8 76.8 42.394 0 76.8-34.381 76.8-76.8h51.2c0 42.419 34.406 76.8 76.8 76.8s76.8-34.381 76.8-76.8h51.2c0 175.155-135.398 318.387-307.2 331.494zM716.8 460.8c-42.061 0-79.053-20.582-102.4-51.891-23.347 31.309-60.339 51.891-102.4 51.891-42.061 0-79.053-20.582-102.4-51.891-23.347 31.309-60.339 51.891-102.4 51.891-18.125 0-35.328-3.866-50.944-10.675 44.518 96.87 142.157 164.275 255.744 164.275s211.226-67.405 255.744-164.275c-15.616 6.81-32.819 10.675-50.944 10.675z"  horiz-adv-x="1024" />

    
    <glyph glyph-name="cir-add" unicode="&#58928;" d="M512-128c-282.76 0-511.982 229.258-511.982 512.019 0 282.76 229.222 511.982 511.982 511.982 282.76 0 511.982-229.222 511.982-511.982 0-282.76-229.222-512.019-511.982-512.019zM512 822.824c-242.35 0-438.842-196.491-438.842-438.842 0-242.35 196.491-438.842 438.842-438.842 242.35 0 438.842 196.491 438.842 438.842 0 242.35-196.491 438.842-438.842 438.842zM548.57 164.561h-73.14v182.851h-182.851v73.177h182.851v182.851h73.14v-182.851h182.851v-73.177h-182.851v-182.851z"  horiz-adv-x="1024" />

    
    <glyph glyph-name="cir-question" unicode="&#58929;" d="M512-128c-282.782 0-512 229.258-512 512 0 282.782 229.218 512 512 512 282.782 0 512-229.218 512-512 0-282.742-229.218-512-512-512zM512 817.27c-239.262 0-433.231-193.969-433.231-433.27 0-239.262 193.969-433.231 433.231-433.231 239.262 0 433.231 193.969 433.231 433.231 0 239.301-193.969 433.27-433.231 433.27zM649.886 438.272c-10.122-12.958-21.031-24.418-32.689-34.422-11.658-10.004-22.567-20.007-32.689-30.011-10.122-10.004-18.55-20.362-25.206-31.153-6.656-10.752-10.004-22.686-10.004-35.761 0-11.028 1.418-21.031 4.254-30.011 2.796-8.98 5.632-16.542 8.468-22.686h-81.172c-2.324 6.42-4.372 14.73-6.144 25.009-1.812 10.24-2.718 20.362-2.718 30.366 0 15.636 3.151 29.814 9.452 42.496 6.262 12.721 14.1 24.576 23.434 35.604 9.374 11.028 19.495 21.662 30.405 31.902 10.87 10.279 21.031 20.283 30.366 30.011 9.374 9.728 17.172 20.007 23.473 30.759 6.262 10.791 9.413 22.567 9.413 35.407 0 11.54-2.284 21.583-6.932 30.169-4.608 8.586-10.949 15.793-19.023 21.543-8.074 5.79-17.29 10.082-27.687 12.879-10.398 2.836-21.465 4.254-33.28 4.254-38.203 0-74.594-17.054-109.214-51.161v88.852c42.023 24.615 85.622 36.903 130.757 36.903 20.756 0 40.409-2.678 58.841-8.074 18.471-5.396 34.619-13.312 48.482-23.828 13.824-10.516 24.734-23.591 32.689-39.227 7.956-15.675 11.934-33.871 11.934-54.626 0-19.732-3.348-37.297-10.004-52.697-6.695-15.399-15.084-29.538-25.206-42.496zM524.682 194.245c14.612 0 27.451-5.159 38.479-15.399 10.752-9.492 16.148-21.543 16.148-36.155 0-14.375-5.396-26.427-16.148-36.155-11.303-10.004-24.103-15.006-38.479-15.006-14.612 0-27.569 5.002-38.833 15.006-10.791 9.728-16.148 21.78-16.148 36.155 0 14.612 5.356 26.663 16.148 36.155 11.028 10.24 23.985 15.399 38.833 15.399z"  horiz-adv-x="1024" />

    
    <glyph glyph-name="cir-wrong" unicode="&#58930;" d="M512 896c-282.813 0-512-229.187-512-512s229.187-512 512-512c282.813 0 512 229.187 512 512 0 282.813-229.187 512-512 512zM512-74.105c-252.632 0-458.105 205.474-458.105 458.105s205.474 458.105 458.105 458.105c252.632 0 458.105-205.474 458.105-458.105 0-252.632-205.474-458.105-458.105-458.105zM550.131 384l169.499 169.634c10.644 10.509 10.644 27.486 0 37.996-10.509 10.644-27.486 10.644-37.996 0l-169.634-169.499-169.634 169.499c-10.509 10.644-27.486 10.644-37.996 0-10.644-10.509-10.644-27.486 0-37.996l169.499-169.634-169.499-169.634c-10.644-10.509-10.644-27.486 0-37.996 5.255-5.255 12.126-7.949 18.998-7.949 6.872 0 13.743 2.695 18.998 7.949l169.634 169.499 169.634-169.499c5.255-5.255 12.126-7.949 18.998-7.949s13.743 2.695 18.998 7.949c10.644 10.509 10.644 27.486 0 37.996l-169.499 169.634z"  horiz-adv-x="1024" />

    
    <glyph glyph-name="cir-right" unicode="&#58931;" d="M512-128c-282.759 0-512 229.241-512 512s229.241 512 512 512c282.759 0 512-229.241 512-512 0-282.759-229.241-512-512-512zM512 842.105c-253.009 0-458.105-205.096-458.105-458.105s205.096-458.105 458.105-458.105c253.009 0 458.105 205.096 458.105 458.105 0 253.009-205.096 458.105-458.105 458.105zM423.262 163.247c-10.509-10.536-27.594-10.536-38.104 0l-174.754 174.754c-10.536 10.509-10.536 27.594 0 38.104 10.509 10.536 27.567 10.536 38.104 0l155.702-155.702 371.281 371.281c10.536 10.536 27.594 10.536 38.104 0 10.536-10.509 10.536-27.594 0-38.104l-390.333-390.333z"  horiz-adv-x="1024" />

    
    <glyph glyph-name="cir-personal" unicode="&#58932;" d="M870.314 18.61v0c0 0 0 0 0 0-92.376-90.584-218.763-146.61-358.314-146.61-282.76 0-511.982 229.258-511.982 512.019 0 282.76 229.222 511.982 511.982 511.982 282.76 0 511.982-229.222 511.982-511.982 0-143.209-58.915-272.484-153.668-365.409zM512-54.86c103.932 0 199.307 36.314 274.496 96.728-40.044 113.733-147.049 195.87-274.496 195.87-127.447 0-234.451-82.137-274.496-195.87 75.188-60.414 170.563-96.728 274.496-96.728zM512 822.824c-242.35 0-438.842-196.491-438.842-438.842 0-109.528 40.373-209.401 106.712-286.308 57.854 125.728 184.643 213.167 332.13 213.167 147.451 0 274.276-87.439 332.13-213.167 66.338 76.87 106.712 176.78 106.712 286.308 0 242.35-196.491 438.842-438.842 438.842zM512 347.412c-101.007 0-182.851 81.881-182.851 182.851 0 101.007 81.844 182.851 182.851 182.851 100.97 0 182.851-81.844 182.851-182.851 0-100.97-81.881-182.851-182.851-182.851zM512 639.973c-60.597 0-109.71-49.114-109.71-109.674 0-60.597 49.114-109.71 109.71-109.71 60.597 0 109.71 49.114 109.71 109.71 0 60.56-49.114 109.674-109.71 109.674z"  horiz-adv-x="1024" />

    
    <glyph glyph-name="cir-mao" unicode="&#58933;" d="M512-128c-282.76 0-511.982 229.258-511.982 512.019 0 282.76 229.222 511.982 511.982 511.982 282.76 0 511.982-229.222 511.982-511.982 0-282.76-229.222-512.019-511.982-512.019zM512 822.824c-242.35 0-438.842-196.491-438.842-438.842 0-242.35 196.491-438.842 438.842-438.842 242.35 0 438.842 196.491 438.842 438.842 0 242.35-196.491 438.842-438.842 438.842zM770.368 273.687c-2.926-70.251-12.288-101.263-34.522-115.306-18.724-11.702-63.815-16.383-152.205-16.383-72.007 0-101.263 4.096-122.327 15.798-15.213 8.777-21.101 23.99-21.101 53.246v98.337l-127.008-11.117c-32.182-2.926-43.884-4.096-67.326-8.777l-4.096 66.155c7.021-1.17 9.947-1.17 15.213-1.17 9.399 0 34.559 1.755 51.527 2.926l131.689 11.702v66.155l-101.263-9.947c-39.788-3.511-50.321-5.266-67.289-8.777l-4.096 64.363c6.436-0.585 9.362-0.585 14.043-0.585 14.628 0 31.597 1.17 52.661 2.926l105.944 9.947v64.4c-37.448-5.266-101.263-11.702-162.701-16.383-6.436 24.575-9.947 34.522-22.271 59.134 168.003 5.266 333.666 35.107 407.428 74.311l42.714-56.757c-8.192-2.34-8.192-2.34-28.086-7.607-1.755-0.585-6.436-1.755-13.458-4.096-58.549-18.139-91.901-26.367-159.226-38.655v-67.874l156.301 15.213c39.203 3.511 49.735 5.266 66.741 9.362l4.096-63.815c-6.436 0.585-9.947 0.585-14.043 0.585-11.154 0-33.974-1.755-52.112-3.511l-160.982-15.798v-67.326l189.068 15.798c35.144 3.511 48.017 5.266 67.326 9.362l3.511-65.534c-7.607 0.585-11.117 0.585-16.383 0.585-12.288 0-30.426-1.17-50.357-2.926l-193.164-16.383v-89.56c0-22.271 10.532-25.197 90.145-25.197 80.783 0 98.922 2.926 106.529 17.554 4.681 9.984 7.021 29.878 7.021 60.304 0 3.511 0 7.607 0 14.043 21.101-9.362 39.24-15.213 62.060-18.724z"  horiz-adv-x="1024" />

    
    <glyph glyph-name="cir-qian" unicode="&#58934;" d="M512-128c-282.76 0-511.982 229.258-511.982 512.019 0 282.76 229.222 511.982 511.982 511.982 282.76 0 511.982-229.222 511.982-511.982 0-282.76-229.222-512.019-511.982-512.019zM512 822.824c-242.35 0-438.842-196.491-438.842-438.842 0-242.35 196.491-438.842 438.842-438.842 242.35 0 438.842 196.491 438.842 438.842 0 242.35-196.491 438.842-438.842 438.842zM590.845 234.447c-26.66 24.575-47.139 53.246-60.45 83.49-6.656 16.383-10.24 27.647-14.847 54.819-6.692-38.947-13.86-59.426-31.267-87.622-25.087-41.471-62.498-76.834-107.077-101.921-20.479-11.264-37.375-18.943-68.13-29.22-6.144 13.86-10.752 21.028-20.479 31.779 39.971 11.264 63.010 20.991 90.145 38.399 78.406 51.235 116.293 124.485 116.293 223.37 0 9.216-0.512 16.383-2.048 26.111h40.995c-1.536-8.704-2.048-18.943-2.048-33.279 0-121.925 77.346-209.51 220.774-251.529-8.192-10.752-13.824-19.967-19.455-34.339-63.010 22.564-106.053 46.627-142.404 79.942zM633.852 389.65c-8.192 7.168-14.847 12.288-27.647 19.455 32.255 28.196 51.747 51.747 76.834 91.718h-256.137c-27.647-53.283-50.723-85.062-88.097-122.949-9.728 11.264-16.383 16.895-27.684 23.551 34.851 31.267 57.891 60.45 81.99 104.517 20.991 37.887 37.887 83.49 42.495 111.649l38.435-8.192c-7.168-15.359-7.168-15.359-23.551-57.891-3.108-7.68-5.156-12.8-8.74-20.479h227.466c18.943 0 30.719 0.512 38.399 2.048l19.492-22.015c-2.048-3.072-9.252-14.884-13.86-23.076-20.991-35.327-45.054-65.058-79.394-98.337z"  horiz-adv-x="1024" />

    
    <glyph glyph-name="cir-tui" unicode="&#58935;" d="M512 896c-282.778 0-512-229.222-512-512s229.222-512 512-512 512 229.222 512 512-229.222 512-512 512zM512-76.8c-254.49 0-460.8 206.31-460.8 460.8s206.31 460.8 460.8 460.8 460.8-206.31 460.8-460.8-206.31-460.8-460.8-460.8zM757.453 363.571l-40.038 31.206c-13.338-16.87-30.208-34.714-50.637-53.581-26.291 18.842-54.579 36.506-84.787 52.992l-31.795-38.272c79.283-45.542 145.229-95.206 197.862-148.966l34.714 41.216c-22.374 21.581-47.488 42.778-75.366 63.565 19.251 17.69 35.917 34.97 50.048 51.84zM362.957 517.248l40.627 40.013c-25.523 29.056-58.675 59.878-99.507 92.442l-38.861-37.094c41.984-33.741 74.573-65.536 97.741-95.36zM630.861 173.389c-34.56 0-73.805 0.384-117.76 1.178-33.357 1.178-59.264 6.067-77.722 14.694-14.515 7.859-28.467 19.635-41.805 35.354l-8.243 8.218v223.181l-131.302 0v-51.814h78.899v-166.63c-23.552-11.776-50.048-41.626-79.488-89.498l41.216-38.272c30.234 52.992 51.43 79.462 63.59 79.462 6.272 0 13.542-4.89 21.786-14.694 18.432-20.813 38.861-34.56 61.235-41.216 25.114-6.272 56.141-9.626 93.030-10.010 50.253-0.794 84.966-1.178 104.192-1.178h137.805l14.131 55.322c-20.019-1.587-43.366-2.56-70.067-2.918-40.832-0.794-70.656-1.178-89.498-1.178zM623.795 241.69l-12.365 50.637c-32.973-10.189-67.738-18.662-104.218-25.318v139.546h236.698v229.632h-290.867v-362.112c0-9.83-6.477-17.075-19.43-21.786l12.365-47.13c68.685 11.418 127.974 23.578 177.818 36.531zM507.213 586.726h181.939v-42.394h-181.939v42.394zM507.213 498.406h181.939v-42.368h-181.939v42.368z"  horiz-adv-x="1024" />

    
    <glyph glyph-name="cir-jin" unicode="&#58936;" d="M512 896c-282.778 0-512-229.222-512-512s229.222-512 512-512 512 229.222 512 512-229.222 512-512 512zM512-76.8c-254.49 0-460.8 206.31-460.8 460.8s206.31 460.8 460.8 460.8 460.8-206.31 460.8-460.8-206.31-460.8-460.8-460.8zM675.61 445.414v30.592c23.552-13.338 50.253-26.291 80.102-38.861l31.795 46.49c-109.542 45.158-191.565 101.862-246.144 170.163h-44.749c-63.59-69.478-146.227-126.592-247.885-171.341l32.384-46.49c28.262 12.954 55.347 27.085 81.254 42.368v-32.947h128.947v-71.245h-205.491v-51.814h205.491v-144.256h-56.525c-14.131 43.571-29.44 81.459-45.926 113.638l-50.048-18.278c16.87-31.002 30.822-62.797 41.805-95.386l-115.405-0v-52.992h506.957v52.992h-113.613c15.667 29.824 29.798 63.002 42.368 99.507l-50.637 18.253c-14.925-43.546-31.027-82.816-48.307-117.76h-55.347v144.256h204.902v51.814h-204.902v71.245l128.973 0zM390.042 495.462c47.104 30.618 90.086 65.946 128.973 106.010 34.918-40.448 76.314-75.776 124.237-106.010h-253.21z"  horiz-adv-x="1024" />

    
    <glyph glyph-name="cir-jun" unicode="&#58937;" d="M512-128c-282.76 0-511.982 229.258-511.982 512.019 0 282.76 229.222 511.982 511.982 511.982 282.76 0 511.982-229.222 511.982-511.982 0-282.76-229.222-512.019-511.982-512.019zM512 822.824c-242.35 0-438.842-196.491-438.842-438.842 0-242.35 196.491-438.842 438.842-438.842 242.35 0 438.842 196.491 438.842 438.842 0 242.35-196.491 438.842-438.842 438.842zM746.963 243.845c-8.192-50.942-19.309-79.028-36.314-92.486-12.873-10.532-32.767-14.628-67.874-14.628-12.873 0-25.782 0.585-62.060 2.926-2.34 24.575-6.436 40.373-16.383 66.119 31.597-4.681 60.304-7.607 79.613-7.607 21.064 0 26.916 4.096 33.352 21.064 13.458 39.825 20.479 142.258 21.064 307.336h-173.854c-18.724-33.974-39.203-59.719-76.066-94.241-11.154 14.628-18.175 22.82-26.952 31.597v-6.436c-12.873 1.17-22.235 1.755-40.959 1.755h-7.607v-151.035c32.767 14.080 34.522 14.665 60.268 28.122l1.17-62.645c-42.129-21.064-87.22-39.788-134.615-57.379-31.011-11.117-31.597-11.702-47.431-18.139l-14.628 66.155c15.213 1.755 36.314 7.607 72.592 19.894v175.025h-16.969c-23.405 0-35.144-0.585-50.357-2.926v64.4c14.043-2.34 28.122-3.511 50.357-3.511h16.969v83.124c0 28.671-0.585 42.714-3.511 62.023h69.666c-2.926-19.309-3.511-31.597-3.511-61.438v-83.709h9.947c21.064 0 29.256 0.585 38.618 2.34v-23.99c32.218 31.011 49.187 56.172 67.326 98.922 7.021 15.798 13.458 35.692 19.309 57.927 0.585 3.511 0.585 3.511 1.755 11.702 0.585 2.926 0.585 3.511 1.755 7.021l69.081-15.213c-2.926-5.851-3.511-7.607-7.607-18.724-4.681-14.628-14.628-40.959-18.139-49.15h155.094c21.101 0 42.751 1.17 53.868 2.34-1.755-14.080-2.34-22.856-2.34-51.527 0-136.992-4.681-231.818-14.628-295.011zM535.661 491.425c46.225-29.841 74.311-50.321 107.114-78.406l-37.484-45.676c-37.448 33.937-63.778 53.868-105.359 80.783l35.729 43.299zM645.115 369.683l12.288-58.549c-49.772-32.767-112.965-67.874-155.131-86.013-8.192-3.547-12.288-5.303-22.82-11.739l-20.479 63.815c10.532 2.34 18.724 4.681 31.011 8.777 43.921 15.798 103.603 48.017 155.131 83.709z"  horiz-adv-x="1024" />

    
    <glyph glyph-name="book" unicode="&#58938;" d="M639.283-51.2h307.917c28.262 0 51.2 22.938 51.2 51.2l-0 768c0 28.262-22.938 51.2-51.2 51.2h-371.354l-76.646-76.646-76.646 76.646h-371.354c-28.262 0-51.2-22.938-51.2-51.2v-768c0-28.262 22.938-51.2 51.2-51.2h307.917c29.594-46.157 81.203-76.8 140.083-76.8s110.49 30.643 140.083 76.8zM499.2-51.2c-45.107 0-82.048 33.459-88.32 76.8l-334.080 0v716.8h319.77l64.23-64.23v-409.37c0-21.197 17.178-38.4 38.4-38.4 21.197 0 38.4 17.203 38.4 38.4v409.37l64.256 64.23h319.744v-716.8h-334.106c-6.246-43.341-43.162-76.8-88.294-76.8z"  horiz-adv-x="1024" />

    
    <glyph glyph-name="solid-time" unicode="&#58939;" d="M512 841.712c-252.823 0-457.712-204.847-457.712-457.67 0-252.781 204.93-457.753 457.712-457.753s457.712 204.972 457.712 457.753c0 252.823-204.972 457.67-457.712 457.67zM638.786 192.011l-168.397 150.379v374.492h83.22v-332.881l143.763-122.375-58.588-69.614z"  horiz-adv-x="1024" />

    
    <glyph glyph-name="gift" unicode="&#58940;" d="M85.931-54.016c0-24.576 7.125-31.317 29.44-31.317h353.365v469.589h-382.805v-438.272zM555.264-85.333h353.365c22.357 0 29.44 6.699 29.44 31.317l-0 438.272h-382.848v-469.589zM938.667 640h-213.333c51.499 11.733 105.899 49.707 112.597 94.293 7.851 50.859-52.565 127.957-125.653 118.187-87.424-12.117-151.509-89.259-196.736-149.077-44.885 58.667-103.381 127.189-187.179 147.115-81.152 19.2-136.747-64.939-135.253-116.992 1.451-44.245 52.608-81.835 105.557-93.525h-213.333c-26.368 0-42.667-14.848-42.667-42.667v-170.581l426.667-0.085v213.333h85.333v-213.333l426.667 0.085v170.581c0 27.819-16.341 42.667-42.667 42.667zM251.648 717.824c-14.763 16.427-4.779 38.741 4.48 55.595 17.024 29.696 40.747 47.744 81.152 30.933 56.32-23.509 97.792-73.216 131.584-117.803-71.552-7.893-178.304-10.965-217.216 31.275zM562.944 687.317c34.816 44.629 75.221 89.941 131.157 117.803 58.581 28.971 113.024-49.323 85.205-86.912-21.419-28.544-89.259-31.232-125.909-32.853-30.080-1.536-60.501-0.811-90.453 1.963z"  horiz-adv-x="1024" />

    
    <glyph glyph-name="diamond" unicode="&#58941;" d="M389.914 844.8h-236.314l-153.6-281.6h281.6l108.314 281.6zM1024 563.2l-153.6 281.6h-236.288l108.288-281.6h281.6zM691.2 563.2l-108.288 281.6h-141.798l-108.314-281.6h358.4zM590.771-7.885l433.229 519.885h-281.6l-151.629-519.885zM0 512l433.229-519.885-151.629 519.885h-281.6zM332.8 512l179.2-614.4 179.2 614.4h-358.4z"  horiz-adv-x="1024" />

    
    <glyph glyph-name="hot" unicode="&#58942;" d="M768 563.2l-76.8-76.8c0 0 0 307.2-256 409.6 0 0-25.6-281.6-153.6-384s-384-409.6 128-640c0 0-256 281.6 76.8 486.4 0 0-25.6-102.4 102.4-204.8s0-281.6 0-281.6 614.4 153.6 179.2 691.2z"  horiz-adv-x="1024" />

    
    <glyph glyph-name="personal" unicode="&#58943;" d="M995.942-76.493c-23.578 229.914-217.805 409.293-453.99 409.293h-59.878c-236.211 0-430.464-179.405-454.042-409.37-1.485-4.070-2.432-8.422-2.432-13.030 0-21.197 17.178-38.4 38.4-38.4s38.4 17.203 38.4 38.4c0 4.506-0.922 8.781-2.355 12.8h6.144c25.088 187.802 185.549 332.8 380.211 332.8h51.2c194.662 0 355.098-144.998 380.211-332.8h6.144c-1.434-4.019-2.355-8.294-2.355-12.8 0-21.197 17.203-38.4 38.4-38.4s38.4 17.203 38.4 38.4c0 4.634-0.947 9.011-2.458 13.107zM512 358.4c141.389 0 256 114.637 256 256v25.6c0 141.363-114.611 256-256 256-141.389 0-256-114.637-256-256v-25.6c0-141.363 114.611-256 256-256zM332.8 640c0 98.97 80.23 179.2 179.2 179.2 98.944 0 179.2-80.23 179.2-179.2v-25.6c0-98.97-80.256-179.2-179.2-179.2-98.97 0-179.2 80.23-179.2 179.2v25.6z"  horiz-adv-x="1024" />

    
    <glyph glyph-name="solid-person" unicode="&#58944;" d="M907.008 123.051l-198.016 80.768c0 0-37.76 15.317-52.437 30.421-9.429 9.728-8.747 32.597-0.427 61.781s109.824 147.968 109.824 255.829c0 166.613-104.661 301.653-233.771 301.653-129.109 0-233.771-135.040-233.771-301.653 0-103.296 90.453-226.517 101.632-248.875s8.448-56.491-0.384-66.816c-13.269-15.531-61.611-31.104-61.611-31.104l-178.517-83.243c-41.728-15.659-74.368-56.832-74.368-103.253v-22.016c0-50.688 39.339-81.707 87.68-81.707h720.896c48.384 0 87.723 31.019 87.723 81.707v22.016c-0.043 46.379-32.768 88.832-74.453 104.491z"  horiz-adv-x="1024" />

    
    <glyph glyph-name="solid-home" unicode="&#58945;" d="M977.732 522.359l-389.291 303.087c-33.502 26.146-86.084 26.112-119.569 0l-389.274-303.087c-13.312-10.359-15.582-29.423-5.069-42.496 10.496-13.107 29.389-15.343 42.684-5.001l19.319 11.537v-494.933c0-51.951 48.384-85.333 97.263-85.333h614.315c48.282-0 73.489 31.044 73.489 85.333v494.933l17.562-11.537c5.666-4.386 12.595-6.502 19.268-6.502 9.062 0 18.159 3.925 24.201 11.503 10.53 13.090 8.431 32.137-4.898 42.496zM631.467-25.6h-204.8v256c0 35.209 39.066 85.333 102.4 85.333s102.4-50.142 102.4-85.333v-256z"  horiz-adv-x="1024" />

    
    <glyph glyph-name="close" unicode="&#58948;" d="M1024.021 835.815l-60.27 60.228-451.794-451.836-450.942 450.942-60.143-60.1 450.942-450.942-451.836-451.836 60.228-60.27 451.836 451.879 450.942-450.942 60.143 60.1-450.942 450.942z"  horiz-adv-x="1024" />

    
    <glyph glyph-name="banjizhiyuanhuodong" unicode="&#58880;" d="M97.7 219c14.1 103.4 88.9 189.2 185.3 224.7-54.6 32-88.4 90.3-89 153.5-0.6 98.5 78.8 178.9 177.3 179.5S550 697.9 550.6 599.4c0.4-64.2-33.7-123.6-89.3-155.6 99.1-34.2 170.7-121 185.5-224.8H97.5h0.2zM664.9 219c-9.5 73.8-46.5 141.4-103.5 189.2-7 13.2-10.7 27.8-11 42.7-1.7 61 46.3 111.9 107.3 113.6 61 1.7 111.9-46.3 113.6-107.3 0.1-2.1 0.1-4.2 0-6.3 0.1-38.3-20.4-73.7-53.6-92.7 60.8-22 104.7-75.3 114.6-139.2H664.9zM718.2-1.7L612.1 116.2l-33.2 128.4 0.4 16.8 31.3 15.4 76.1-37.6 112.7 108.7 56.2-23.1 24.9-23.3 8.6-40.9zM926.5 265.2v-2.8l-0.1-2.8-0.1-2.7-0.2-2.8-0.3-2.7-0.4-2.7-0.4-2.7-0.5-2.7-0.6-2.7-0.6-2.6-0.7-2.6-0.8-2.6-0.8-2.6-0.9-2.6-0.9-2.5-1-2.5-1.1-2.5-1.1-2.4-1.1-2.4-1.2-2.4-1.3-2.3-1.3-2.3-1.4-2.3-1.4-2.2-1.5-2.2-1.6-2.1-1.6-2.1-1.6-2.1-1.7-2-1.8-1.9-1.8-1.9-178.5-198.2-31.4 34.9 202.3 227.4-1.1 0.5-1.1 0.5-1.1 0.5-1.1 0.5-1.1 0.5-1.1 0.4-1.1 0.4-1.1 0.4-1.1 0.4-1.1 0.3-1.1 0.3-1.1 0.2-1.1 0.2-1.1 0.1-1.1 0.1-1.1 0.1H868l-1.1-0.1-1.1-0.2-1.1-0.2-1.1-0.3-1-0.4-1-0.4-1-0.5-1-0.6-1-0.6-1-0.7-0.9-0.8-0.9-0.9-0.9-0.9-43.9-48.7-7.2 3.6 77.9 86.6-1.3 0.6-1.3 0.6-1.3 0.5-1.3 0.5-1.2 0.5-1.2 0.5-1.2 0.4-1.2 0.4-1.2 0.4-1.2 0.3-1.2 0.3-1.1 0.3-1.1 0.2-1.1 0.2-1.1 0.1-1.1 0.1-1.1 0.1h-2.2l-1-0.1-1-0.1-1-0.2-1-0.3-0.9-0.3-0.9-0.3-0.9-0.4-0.9-0.4-0.8-0.5-0.8-0.6-0.8-0.6-0.7-0.7-0.7-0.7-62.2-69-7.3 4.5 78.5 87.1-1.4 0.6-1.4 0.6-1.1 0.5-1.3 0.5-1.3 0.4-1.3 0.4-1.3 0.4-1.2 0.3-1.3 0.3-1.2 0.3-1.2 0.2-1.2 0.1-1.2 0.1-1.2 0.1H836.9l-1.1-0.1-1.1-0.1-1.1-0.2-1.1-0.2-1.1-0.3-1-0.3-1-0.4-1-0.4-1-0.5-0.9-0.5-1-0.6-0.9-0.6-0.9-0.7-0.9-0.8-0.9-0.8-0.8-0.9-59-64.8-7.3 5 67 74-1.3 0.5-1.6 0.6-0.9 0.3-0.9 0.3-1 0.3-1 0.3-1.1 0.3-1.1 0.2-1.1 0.3-1.2 0.2-1.2 0.2-1.2 0.1-1.2 0.1H803.1l-1.3-0.1-1.3-0.1-1.3-0.2-1.3-0.3-1.3-0.3-1.3-0.4-1.3-0.5-1.3-0.5-1.2-0.6-1.2-0.7-1.2-0.8-1.1-0.9-1.1-1-1.1-1.1-57-62.7-1.8-2-2-2.4-1.1-1.3-1.2-1.4-1.2-1.4-1.3-1.5-1.4-1.5-1.4-1.5-1.5-1.5-1.6-1.5-1.6-1.5-1.7-1.4-1.7-1.4-1.8-1.4-1.8-1.3-1.9-1.2-1.9-1.1-2-1.1-2.1-0.9-2.1-0.8-2.1-0.7-2.2-0.6-2.3-0.4-2.3-0.2h-2.4l-2.4 0.1-2.5 0.3-2.5 0.6-2.5 0.8-2.6 1-1.7 0.8-1.7 0.9-1.6 0.9-1.6 1-1.6 1-1.6 1.1-1.5 1.1-1.5 1.2-1.5 1.3-1.5 1.2-1.5 1.3-1.6 1-2.9 2.7-2.9 2.7-1.5 1.3-1.5 1.3-1.5 1.3-1.5 1.3-1.5 1.2-1.5 1.2-1.6 1.2-1.6 1.1-1.6 1-1.6 1-1.7 1-1.7 0.9-1.7 0.8-1.8 0.7-1.8 0.6-1.8 0.5-1.9 0.4-1.9 0.3-1.9 0.2-1.9 0.1-1.9-0.1-1.9-0.2-1.9-0.3-1.8-0.4-1.8-0.5-1.8-0.6-1.8-0.7-1.7-0.8-1.7-0.9-1.6-1-1.6-1-1.5-1.1-1.5-1.2-1.4-1.3-1.3-1.3-1.3-1.4-1.2-1.4-1.1-1.5-1-1.6-0.9-1.6-0.9-1.7-0.8-1.7-0.6-1.7-0.5-1.8-0.4-1.8-0.3-1.9-0.2-1.9-0.1-1.9 2.1-0.1 2.1-0.2 2-0.2 2-0.3 1.9-0.4 1.9-0.5 1.8-0.5 1.8-0.6 1.7-0.7 1.7-0.8 1.6-0.9 1.6-0.9 1.5-1 1.4-1.1 1.4-1.2 1.4-1.3 1.3-1.4 1.2-1.5 1.2-1.6 1.1-1.6 1-1.8 1-1.8 0.9-1.9 0.9-2 0.8-2.1 0.7-2.2 0.7-2.3 0.6-2.4 0.5-2.5 0.5-2.6 0.4-2.7 0.3-2.8 0.6-4.5 0.7-4.4 0.8-4.3 1-4.2 1.1-4.1 1.3-4 1.4-4 1.5-3.9 1.7-3.8 1.8-3.7 2-3.6 2.2-3.6 2.3-3.5 2.5-3.4 2.7-3.3 2.9-3.3 3.1-3.2 3.2-3.2 3.4-3.1 3.6-3.1 3.8-3 4-3 4.2-2.9 4.5-2.9 4.7-2.9 4.9-2.8 5.1-2.8 5.4-2.8 5.6-2.8 5.8-2.7 6.1-2.7 6.3-2.7-43-47.8L553 174.9l-6.6 8-5.6 8.2-4.5 8.2-3.6 8.3-2.6 8.3-1.7 8.2-0.9 8.2v8l0.8 7.9 1.5 7.7 2.2 7.4 2.9 7.2 3.6 6.8 4.1 6.5 4.7 6.1 5.2 5.6 5.7 5.1 6.1 4.6 6.5 4 6.9 3.4 7.2 2.8 7.5 2.1 7.7 1.3 7.9 0.6 8-0.2 8.2-1.1 8.3-2 8.3-2.9 8.3-3.9 8.3-4.9 8.2-5.9 8.1-7 1.3-1.3 1.3-1.2 0.6-0.6 1.2-1.1 0.6-0.5 0.6-0.5 0.6-0.5 0.6-0.4 0.6-0.4 0.6-0.4 0.6-0.3 0.6-0.3 0.6-0.2 0.7-0.1 0.7-0.1h0.7l0.7 0.1 0.8 0.1 0.8 0.2 0.8 0.3 0.8 0.4 0.9 0.5 0.9 0.6 0.9 0.7 1 0.8 1 0.9 1.1 1 1.1 1.1 1.1 1.2 43.2 47.7 1.8 1.9 1.9 1.8 1.9 1.8 1.9 1.7 2 1.7 2 1.6 2.1 1.6 2.1 1.5 2.1 1.5 2.2 1.5 2.2 1.4 2.3 1.4 2.3 1.3 2.3 1.2 2.3 1.2 2.4 1.1 2.4 1.1 2.4 1 2.5 1 2.5 0.9 2.6 0.9 2.5 0.8 2.6 0.7 2.6 0.6 2.6 0.6 2.6 0.5 2.7 0.4 2.7 0.4 2.7 0.3 2.7 0.2 2.8 0.2 2.8 0.1h5.5l5.5-0.3 5.4-0.6 5.3-0.8 5.2-1.1 5.1-1.3 5-1.6 4.9-1.8 4.8-2 4.7-2.2 4.6-2.5 4.4-2.7 4.3-2.9 4.1-3.1 4-3.3 3.8-3.5 3.6-3.7 3.5-3.8 3.3-4 3.1-4.1 2.9-4.3 2.7-4.4 2.5-4.6 2.3-4.7 2-4.8 1.8-4.9 1.6-5 1.4-5.2 1.1-5.3 0.8-5.3 0.6-5.4 0.3-5.5 0.2-3.2z"  horiz-adv-x="1024" />

    
    <glyph glyph-name="canjiaxiaowaijingsai" unicode="&#58946;" d="M926.5 645c0 10.2-7.8 18.5-17.5 18.5H806.5v2c0.1 6.4 0.3 12.7 0.3 18.9 0 19.6-0.8 40.2-2.4 62.9-0.7 9.6-8.4 17.1-17.5 17.1H235.4c-9.1 0-16.8-7.5-17.5-17.1-1.6-19.9-2.5-43-2.5-66.3 0-1.7 0.1-6.9 0.2-12.1l0.1-5.5H115c-9.6 0-17.5-8.3-17.5-18.6-6.4-134.8 48.8-283 186.7-310 1-0.3 2.1-0.4 3.3-0.4 1.9 0 3.7 0.4 5.5 1l1.3 0.5 0.8-1.5c21.6-39.9 46.7-73.2 74.5-99.1 34.9-32.5 72.9-52.2 113-58.6l11.1-2v-134.1h-137c-9.6 0-17.5-8.3-17.5-18.5 0-9.8 7.4-17.9 16.6-18.4h310.1c9.6 0 17.5 8.3 17.5 18.4 0 10.2-7.9 18.5-17.5 18.5h-137V160c-0.1 0.6 0 1.1 0 2.1v12.7l11.1 1.9c40.1 6.4 78.1 26.1 113 58.5 27.9 26 53.1 59.6 74.9 99.8l0.9 1.6 1.6-0.7c1.9-1 4.2-1.5 6.6-1.5 1.2 0 2.3 0.2 3.3 0.5C877.7 361.8 932.9 510 926.5 645zM272 375.2c-68.6 19.3-141.3 105.7-139 249.3h0.1v1.9h84.6l0.1-1.9c6.5-91 25.5-174 56.4-246.7l1.6-3.8-3.8 1.2z m619 249.3c2.3-145.3-71.3-231.4-140.7-249.8l-3.9-1 1.6 3.8c20.5 48.3 36 101.4 45.7 157.8 0 0 1.5 8.4 1.8 10.7 3.4 20.8 6 42.4 7.9 64l0.6 7.6 0.6 8.8h86.3l0.1-1.9zM512 623.9l38.8-78.5 86.7-12.6-62.8-61.2 14.8-86.3L512 426l-77.5-40.7 14.8 86.3-62.8 61.2 86.7 12.6z"  horiz-adv-x="1024" />

    
    <glyph glyph-name="guojiajiangxuejin" unicode="&#58947;" d="M473.5 788c-4.9 2.4-13 2.4-17.9 0L105.7 615.2c-4.9-2.4-9-8.9-9-14.4v-234c0-5.5 4.5-10 10-10l715.8-2.2c5.5 0 10 4.5 10 10l-0.2 236.3c0 5.5-4 12-9 14.4L473.5 788zM708.7 461.1H332.1c-5.5 0-10 4.5-10 10V789.4c0 5.5 4.5 10 10 10h376.6c5.5 0 10-4.5 10-10v-318.3c0-5.5-4.5-10-10-10zM623.7 404.7H247.1c-5.5 0-10 4.5-10 10V732.9c0 5.5 4.5 10 10 10h376.6c5.5 0 10-4.5 10-10v-318.3c0-5.4-4.5-9.9-10-9.9zM106.8 134.5c-5.5 0-10 4.5-10 10V601.6c0 5.5 4.1 8.1 9.1 5.8L455 447.3c5-2.3 13.2-2.3 18.2 0l350 160.1c5 2.3 9.1-0.3 9.1-5.8l0.3-457.1c0-5.5-4.5-10-10-10H106.8zM520.7 282.79999999999995h-43v28.6h43c7.9 0 14.3 6.4 14.3 14.3s-6.4 14.3-14.3 14.3h-29.3l27.8 51.3c3.6 6.5 1.4 14.8-4.7 18.6-6.1 3.7-13.9 1.5-17.5-5L465.1 346c-1-1.9-1.5-4-1.7-6h-0.1c-0.1 2-0.6 4.1-1.7 6l-31.5 58.8c-3.5 6.5-11.3 8.7-17.3 5s-8.2-12.1-4.6-18.6l27.4-51.3h-29.3c-7.9 0-14.3-6.4-14.3-14.3s6.4-14.3 14.3-14.3h43v-28.6h-43c-7.9 0-14.3-6.4-14.3-14.3s6.4-14.3 14.3-14.3h43v-30c0-7.1 6.4-12.9 14.3-12.9s14.3 5.8 14.3 12.9v30h43c7.9 0 14.3 6.4 14.3 14.3-0.1 8-6.7 14.4-14.5 14.4zM293.1 667.1H577v-57H293.1zM547.4 158.60000000000002c0-104.9 84.9-189.9 189.8-190 104.9 0 189.9 84.9 190 189.8v0.1c0 104.9-84.9 189.9-189.8 190s-189.9-84.9-190-189.9c0 0.1 0 0 0 0zM638.5 57.200000000000045V257.29999999999995h193.7v-199.9h-30.4v7.5H668.9v-7.7h-30.4z m163.3 173.9H668.9V91h132.8V231.10000000000002z m-12-77.1H774c5.9-5.1 11.8-10.6 17.8-16.4l-11.3-10.2H795v-24.9H674.7v24.9h43.4V154h-37.9v24.9h37.9V194h-41.3v25h116v-24.9h-46.2V179h43.2v-25z m-37.2-10.6l12.3 10.6h-18.3v-26.6h20.9c-5.6 6.4-10.6 11.7-14.9 16z"  horiz-adv-x="1024" />

    
    <glyph glyph-name="tuanxuezhaoxin" unicode="&#58949;" d="M792.2 147.7s-95.6 169.9-347.6 169.9C192.6 317.6 97 147.7 97 147.7v-84.9h695.1l0.1 84.9zM230 576.2a221.8 214.3 90 1 1 428.6 0 221.8 214.3 90 1 1-428.6 0ZM546 160.5C546 55.3 631.2-30 736.4-30s190.5 85.2 190.5 190.4v0.1c0 105.2-85.2 190.5-190.4 190.5S546 265.8 546 160.7v-0.2zM622.2 198.6h228.5v-76.2H622.2v76.2zM698.4 274.8h76.2v-228.5h-76.2V274.8z"  horiz-adv-x="1024" />

    
    <glyph glyph-name="xiaoyouhui" unicode="&#58950;" d="M560.1 609.9c0-61.7 50-111.6 111.6-111.6s111.6 50 111.6 111.6-50 111.6-111.6 111.6-111.6-50-111.6-111.6zM839.4 262.8s-46 218.1-167.4 218.1-167.4-218.1-167.4-218.1V143h334.7V262.8zM249.1 589c0-71.6 58.1-129.7 129.7-129.7S508.6 517.4 508.6 589s-58.1 129.7-129.7 129.7-129.8-58-129.8-129.7zM573.6 185.7s-53.5 253.4-194.5 253.4-194.5-253.4-194.5-253.4v-139.2h388.9V185.7z"  horiz-adv-x="1024" />

    
    <glyph glyph-name="xiuxue" unicode="&#58951;" d="M582.5 413.1V585.9L448.7 684v50.5h119.1V798.7H432.1V684L296.5 580.6v-167.5h-167v-284.3h246.2V238c0 32.4 26.9 58.6 60.1 58.6 33.9 0 61.3-26.8 61.3-59.9v-107.9h241.5V413.1H582.5zM437.3 455.9c-33.2 0-60.1 26.2-60.1 58.6 0 32.4 26.9 58.6 60.1 58.6s60.1-26.3 60.1-58.6c0-32.4-26.9-58.6-60.1-58.6z m-0.9-159c-33.5 0-60.7-27.2-60.7-60.7v-107.7c0.9 0 1.7-0.1 2.6-0.2 0.9 0.1 1.8 0.2 2.7 0.2 1.1 0.1 2.3 0.2 3.4 0.2h1.1c1.2 0 2.5-0.1 3.6-0.2h1c17.9-0.1 35.7-2.8 53.6-3.5 17.7-0.6 35.5-0.1 53.2 1.4V236.3c0.2 33.5-27 60.6-60.5 60.6zM97.9 129.5H767v-17.6H97.9zM606 7.4V312.7c0 21 18 38.2 40 38.2h240c22 0 40-17.2 40-38.2v-305.3c0-21-18-38.2-40-38.2H646c-22 0.1-40 17.2-40 38.2zM653.7 188.7h224.7v-57.3H653.7z"  horiz-adv-x="1024" />

    
    <glyph glyph-name="xinlijiankangjiaoyu" unicode="&#58952;" d="M670.9 671.9c-67.2 0-126.4-33.6-159.9-86.4-33.6 52.8-92.8 86.4-159.9 86.4-105.6 0-191.9-86.4-191.9-191.9 0-190.3 351.9-383.9 351.9-383.9S862.9 288 862.9 480c0 105.5-86.4 191.9-192 191.9zM97 399h191.3v-32.6H97zM348.1 540.9l-59.9-173.2-30.8 10.6 90.7 206zM348.1 541.4L408 368.2l30.8 10.6-90.7 206zM531.8 226.6l59.9 173.2 30.8-10.6-90.7-206zM591.3 399.7H927v-32.6H591.3zM531.8 227.1l-59.9 173.2-30.8-10.6 90.7-206zM408 399.7h65v-32.6h-65z"  horiz-adv-x="1024" />

    
    <glyph glyph-name="zhuantixuexihui" unicode="&#58953;" d="M512.6 22.7c-98.2 19-210.5 14.6-384.6 0l-0.3 653.7c81.7 31.5 385 0 385 0m383.7-0.1s-303.3 31.5-385 0l0.3-653.7c174.1 14.6 286.4 19 384.6 0M508.4 672h7.1v-643.1h-7.1zM466 490.7v-22.6c-80.5 8.6-169.5 8.6-256 0v22.6c84.1 9.1 172.3 9.1 256 0z m-257.2-64.4v-22.6c86.6 8.6 175.6 8.6 256 0v22.6c-83.7 9.1-171.9 9.1-256 0z m1.2-63.9v-22.6c86.6 8.6 175.6 8.6 256 0v22.6c-83.7 9.1-171.9 9.1-256 0z m0-63.9v-22.6c57.9 8.6 117.4 8.6 171.2 0v22.6c-56 9.1-115 9.1-171.2 0z m0-64v-22.6c72 8.6 146.1 8.6 213.1 0v22.6c-69.7 9.2-143.1 9.1-213.1 0zM576.5 641.1c0 5.5 3.6 12.7 8.1 15.9l111.9 82.4c4.4 3.3 11.7 3.3 16.1 0l113.3-82.5c4.4-3.2 8.1-10.4 8.1-15.9l-0.1-358.6c0-5.5-4.5-10-10-10l-237.4 0.1c-5.5 0-10 4.5-10 10V641.1zM703.4 608.8m-32.2 0a32.2 32.2 0 1 1 64.4 0 32.2 32.2 0 1 1-64.4 0ZM724.3 426.1c-5.5 0.1-10 4.6-9.9 10.1l0.5 47.8c0.1 5.5 4.6 10 10.1 9.9l47.8-0.5c5.5-0.1 10-4.6 9.9-10.1l-0.5-47.8c-0.1-5.5-4.6-10-10.1-9.9l-47.8 0.5z m46.5-82.1c5.5-0.1 10 4.4 10.1 9.9l0.5 47.8c0.1 5.5-4.4 10-9.9 10.1l-47.8 0.5c-5.5 0.1-10-4.4-10.1-9.9l-0.5-47.8c-0.1-5.5 4.4-10 9.9-10.1l47.8-0.5z m-81.8-0.9c5.5-0.1 10 4.4 10.1 9.9l0.5 47.8c0.1 5.5-4.4 10-9.9 10.1l-47.8 0.5c-5.5 0.1-10-4.4-10.1-9.9l-0.5-47.8c-0.1-5.5 4.4-10 9.9-10.1l47.8-0.5z m1.1 83.4c5.5-0.1 10 4.4 10.1 9.9l0.5 47.8c0.1 5.5-4.4 10-9.9 10.1l-47.8 0.5c-5.5 0.1-10-4.4-10.1-9.9l-0.5-47.8c-0.1-5.5 4.4-10 9.9-10.1l47.8-0.5z"  horiz-adv-x="1024" />

    
    <glyph glyph-name="zichanguanli" unicode="&#58954;" d="M98 672.8v-505.1l295.5-82 310.6 82V671.9zM401 529.7c167.6 0 303.4 60 303.4 134.1S568.6 797.8 401 797.8c-167.6 0-303.4-60-303.4-134.1s135.9-134 303.4-134zM401 113.9c145 0 273.4 36.5 303.4 85.2 0.2-10.1 0-15.4 0-23.5 0-60-135.8-108.7-303.4-108.7-167.6 0-303.4 48.7-303.4 108.7 0 8.1 0 14.4 1 23.5 30-48.7 157.4-85.2 302.4-85.2z m0 114.6c-145 0-272.4 36.5-302.4 85.2-1-9.1-1-15.4-1-23.5 0-60 135.8-108.7 303.4-108.7 167.6 0 303.4 48.7 303.4 108.7 0 8.1 0.2 13.4 0 23.5-30-48.7-158.4-85.2-303.4-85.2z m0 113.9c-145 0-272.4 36.5-302.4 85.2-1-9.1-1-15.4-1-23.5 0-60 135.8-108.7 303.4-108.7 167.6 0 303.4 48.7 303.4 108.7 0 8.1 0.2 13.4 0 23.5-30-48.7-158.4-85.2-303.4-85.2z m0 117.5c-145 0-272.4 36.5-302.4 85.2-1-9.1-1-15.4-1-23.5 0-60 135.8-108.7 303.4-108.7 167.6 0 303.4 48.7 303.4 108.7 0 8.1 0.2 13.4 0 23.5-30-48.7-158.4-85.2-303.4-85.2zM486.7 267.9h-64.5v42.9h64.5c11.9 0 21.4 9.5 21.4 21.4s-9.5 21.4-21.4 21.4h-44l41.8 77c5.4 9.7 2.1 22.2-7.1 27.9-9.2 5.5-20.9 2.3-26.2-7.5l-47.8-88.4c-1.5-2.9-2.3-5.9-2.5-9h-0.2c-0.2 3-1 6.2-2.5 9l-47.3 88.3c-5.3 9.7-16.9 13-25.9 7.5s-12.2-18.2-6.9-27.9l41.1-77h-44c-11.9 0-21.4-9.5-21.4-21.4 0-11.9 9.5-21.4 21.4-21.4h64.5v-42.9h-64.5c-11.9 0-21.4-9.5-21.4-21.4 0-11.9 9.5-21.4 21.4-21.4h64.5v-45c0-10.7 9.5-19.4 21.4-19.4 11.9 0 21.4 8.6 21.4 19.4v45H487c11.9 0 21.4 9.5 21.4 21.4-0.1 11.9-9.9 21.5-21.7 21.5zM629.9 294.3c-0.6 4.7-0.8 9.6-1.9 14.1-2.8 11.1 1.4 19.5 9.7 26.1 12.6 10.2 27.7 14.4 43.4 16.3 11 1.3 19-3.7 23.8-13.9 2.6-5.5 5.5-10.6 10-14.9 14-13.4 37.5-7 45.5 9.4 1.9 3.9 4.4 7.7 7.1 11.2 5.3 6.8 12.5 9.3 20.9 8.1 13.5-2 26.5-5.6 37.3-14.4 6.4-5.2 12.3-10.8 14-19.5 1.1-5.3-0.6-10.2-2.3-14.9-1.9-5.3-2.8-10.7-2.3-16.3 1.1-12.7 12.4-23.4 25.2-23.9 6.8-0.3 13.3 1 19.6 3.6 12.6 5.2 23.4 1.8 31.4-9.2 9.2-12.7 13.5-27.3 15.1-42.5 1.1-10.5-4-19-15.8-24.2-5.3-2.3-9.9-5.4-13.9-9.6-13.1-13.9-8.8-36.3 8.5-44.4 5.9-2.8 11.5-6 15.5-11.4 5.1-6.9 6.1-14.5 4.7-22.7-2.3-13-6.3-25.4-15.3-35.5-8.1-9.1-17.9-13.3-30.1-10.2-8.5 2.2-17 3.8-25.9 2.2-9.4-1.7-18-11.1-18.7-20.8-0.4-6.2 0-12.2 2.6-18 5.9-13.2 0.1-26.6-10.3-33.7-11.9-8.1-25-12.9-39.1-14.8-11.7-1.5-21.2 4.6-26.7 16.9-3.6 8.1-8.8 14.6-17 18.3-9.6 4.3-18.7 2.8-26.9-3.4-5.3-3.9-9.4-8.9-11.8-15.1-5.7-14.5-19.5-18.5-31.7-16.2-15.1 2.8-29.4 7.8-41.5 17.8-5.5 4.5-9.6 9.7-10.8 17.1-0.8 5 0.4 9.5 2.1 13.9 2.2 5.7 4.1 11.2 3.8 17.4-0.5 10.4-8.3 19.2-18.6 20.6-8.1 1.1-15.8-0.5-23.6-2.2-11.3-2.6-20.7 0.7-27.7 9.9-9.2 12.1-14.5 25.9-15.5 40.9-0.9 12 3.1 21.8 15.3 26.9 8.8 3.7 16 9.6 20.3 18.3 4.1 8.4 3.5 16.9-2.4 23.9-4 4.8-9 9.9-14.6 11.9-16.1 5.6-21.2 22.8-17.9 36.8 2.9 12.4 6.9 24.3 15.5 34 6.3 7.3 13.9 11.3 24.1 8.4 6.7-1.9 13.4-4.2 20.7-3.7 12.8 0.8 24.6 7.9 25.7 23.9 0.2 2.5 0.3 5 0.5 7.5-0.2 0-0.1 0 0 0zM818.6 161.3c0.4-46.1-37.4-83.7-84.5-84.2-46.3-0.5-84.5 37.4-84.6 83.9-0.1 46.1 37 83.2 84 83.8 46.5 0.6 84.7-36.9 85.1-83.5z"  horiz-adv-x="1024" />

    
    <glyph glyph-name="caigou" unicode="&#58955;" d="M794.2 590.2H528.4c-5.5 0-10 4.5-10 10v58.7c0 5.5 4.5 10 10 10h265.8c5.5 0 10-4.5 10-10v-58.7c0-5.5-4.5-10-10-10zM584 509.1l-248.5 74.5c-5.3 1.6-8.3 7.2-6.7 12.5L362 707.2c1.6 5.3 7.2 8.3 12.5 6.7L623 639.4c5.3-1.6 8.3-7.2 6.7-12.5l-33.3-111.1c-1.6-5.2-7.2-8.2-12.4-6.7zM835.3 621.7c14.2 0 25.4-2 33.4-5.9 7.9-3.9 13.5-8.8 16.9-14.6 3.4-5.8 4.9-11.8 4.6-18.4-0.3-6.5-1.2-12.1-2.7-16.8s-4.7-14.4-9.6-29c-4.9-14.6-10.4-30.7-16.5-48.3-6.1-17.6-12.2-34.9-17.9-52.2-5.9-17.3-10.4-30.8-13.3-40.8-6.7-20.9-15.1-35.4-25.4-43.6-10.2-8-22.7-12.1-37.5-12.1H364.6l11.6-70.6h386.4c24.5 0 36.8-10.8 36.8-32.2 0-10.5-2.4-19.4-7.3-27-4.9-7.6-14.4-11.4-28.8-11.4H361.4c-10.2 0-18.8 2.3-25.7 7-7 4.7-12.6 10.8-17.2 18.4-4.6 7.6-8.3 15.8-11.1 24.7-2.8 9-5 17.3-6.5 25-0.4 3.2-1.9 10.8-4.2 22.8-2.4 12-5.2 27-8.5 45.1s-7 38.2-11.1 60.4c-4.2 22.2-8.2 44.6-12.3 67.1C255 522.1 244 581 231.9 645.8h-57.5c-7.7 0-14.1 2-19.1 5.9-5.2 4.1-9.3 8.8-12.8 14.3-3.4 5.5-5.6 11.4-6.8 17.6-1.3 6.4-1.9 12-1.9 17.3 0 10.5 3.4 19.1 10.4 26 7 6.8 16.2 10.2 28 10.2h77.4c10.2 0 18.4-1.5 24.5-4.7 6.1-3.2 11-7.1 14.5-11.8 3.6-4.7 6.1-9.7 7.7-14.9 1.5-5.3 2.8-9.7 3.9-13.4 1-4.2 2.1-10 3.1-17.6 1-7.6 2.1-15.3 3.1-23.1 1.5-9.4 3.1-19.4 4.6-29.9h524.3zM706.4 176.1c9.8 0 19-1.8 28-5.5 8.9-3.6 16.6-8.8 23-15.3s11.6-14.3 15.3-23.2c3.9-9 5.8-18.4 5.8-28.2 0-9.9-1.9-19.3-5.8-28.2s-8.9-16.7-15.3-23.1c-6.4-6.5-14.1-11.7-23-15.6-8.9-3.9-18.2-5.9-28-5.9s-19 2-27.6 5.9c-8.8 3.9-16.2 9.1-22.7 15.6-6.4 6.5-11.6 14.3-15.3 23.1-3.9 8.8-5.8 18.2-5.8 28.2s1.9 19.4 5.8 28.2 8.9 16.5 15.3 23.2c6.4 6.5 13.9 11.7 22.7 15.3 8.8 3.7 18 5.5 27.6 5.5z m-318.9 1.5c9.8 0 19-1.8 27.6-5.5 8.8-3.6 16.3-8.8 23-15.3 6.7-6.5 11.7-14.3 15.3-23.2 3.6-9 5.3-18.4 5.3-28.2 0-9.9-1.8-19.3-5.3-28.2-3.6-9-8.8-16.7-15.3-23.2-6.7-6.5-14.2-11.7-23-15.6-8.8-3.9-17.9-5.9-27.6-5.9-10.2 0-19.6 2-28 5.9s-16 9.1-22.7 15.6c-6.7 6.5-11.7 14.3-15.3 23.2-3.6 9-5.3 18.4-5.3 28.2 0 9.9 1.8 19.4 5.3 28.2 3.6 9 8.8 16.5 15.3 23.2 6.7 6.5 14.2 11.7 22.7 15.3s17.8 5.5 28 5.5z"  horiz-adv-x="1024" />

    
    <glyph glyph-name="zichanpankuiyingdengji" unicode="&#58956;" d="M98.2 673.8v-505.1l295.5-82 310.7 82V673zM401.3 530.7c167.6 0 303.4 60 303.4 134.1s-135.8 134-303.4 134c-167.6 0-303.4-60-303.4-134.1s135.8-134 303.4-134zM401.3 115c145 0 273.4 36.5 303.4 85.2 0.2-10.1 0-15.4 0-23.5 0-60-135.8-108.7-303.4-108.7-167.6 0-303.4 48.7-303.4 108.7 0 8.1 0 14.4 1 23.5 30-48.7 157.3-85.2 302.4-85.2z m0 114.6c-145 0-272.4 36.5-302.4 85.2-1-9.1-1-15.4-1-23.5 0-60 135.8-108.7 303.4-108.7 167.6 0 303.4 48.7 303.4 108.7 0 8.1 0.2 13.4 0 23.5-30-48.7-158.4-85.2-303.4-85.2z m0 113.9c-145 0-272.4 36.5-302.4 85.2-1-9.1-1-15.4-1-23.5 0-60 135.8-108.7 303.4-108.7 167.6 0 303.4 48.7 303.4 108.7 0 8.1 0.2 13.4 0 23.5-30-48.7-158.4-85.2-303.4-85.2z m0 117.5c-145 0-272.4 36.5-302.4 85.2-1-9.1-1-15.4-1-23.5 0-60 135.8-108.7 303.4-108.7 167.6 0 303.4 48.7 303.4 108.7 0 8.1 0.2 13.4 0 23.5-30-48.8-158.4-85.2-303.4-85.2zM487 268.9h-64.5v42.9H487c11.9 0 21.4 9.5 21.4 21.4s-9.5 21.4-21.4 21.4h-44l41.8 77c5.4 9.7 2.1 22.2-7.1 27.9-9.2 5.5-20.9 2.3-26.2-7.5l-47.8-88.4c-1.5-2.9-2.3-5.9-2.5-9h-0.2c-0.2 3-1 6.2-2.5 9l-47.3 88.3c-5.3 9.7-16.9 13-25.9 7.5s-12.2-18.2-6.9-27.9l41.1-77h-44c-11.9 0-21.4-9.5-21.4-21.4s9.5-21.4 21.4-21.4H380v-42.9h-64.5c-11.9 0-21.4-9.5-21.4-21.4s9.5-21.4 21.4-21.4H380v-45c0-10.7 9.5-19.4 21.4-19.4s21.4 8.6 21.4 19.4v45h64.5c11.9 0 21.4 9.5 21.4 21.4-0.1 11.9-9.9 21.5-21.7 21.5zM542.8 160.9c0-105.9 85.7-191.7 191.6-191.7s191.7 85.7 191.7 191.6v0.1c0 105.9-85.7 191.7-191.6 191.7s-191.7-85.7-191.7-191.7c0 0.1 0 0.1 0 0zM816.5 209.7h36.6v-146.4h-36.6V209.7z m-48.8-48.8h36.6v-97.6h-36.6v97.6z m-48.8 24.4h36.6v-122h-36.6v122z m-48.8-61h36.6v-61h-36.6v61z m-48.8 24.4h36.6v-85.4h-36.6v85.4zM834.8 277.4l-49.2-24.9-55.9 14.1-53.9-47.2-47.2 11.5-6.7-25.6 60.6-15.5 53.9 47.2 51.9-12.8 58.6 29-12.1 24.2z"  horiz-adv-x="1024" />

    
    <glyph glyph-name="baoxiaodan" unicode="&#58957;" d="M900.9 95.4H158.7v39.1h700.6v503H158.7v35.1h742.2c6.1 0 11.1-4.1 11.1-9.1v-559c0-5-5-9.1-11.1-9.1z m-42 38.9V637.2H158.3v-502.9h700.6zM112 111.6v1.8c0 9 4.2 16.1 12.5 18 16.6 5.4 29 17.9 29 34s-12.5 28.7-29.2 34.1c-7.3 3.3-12.3 9.9-12.3 17.5v41.5c0 9 4.2 16.1 12.5 17.9 16.6 5.4 29 17.9 29 34s-12.5 28.7-29.2 34.1c-7.3 3.3-12.3 9.9-12.3 17.5v41.6c0 9 4.2 16.1 12.5 18 16.6 5.4 29 17.9 29 34s-12.5 28.6-29.2 34.1c-7.3 3.3-12.3 9.9-12.3 17.5v41.5c0 9 4.2 16.1 12.5 17.9 16.6 5.4 29 17.9 29 34s-12.5 28.7-29.2 34.1c-7.3 3.3-12.3 9.9-12.3 17.5v2.1c0 10.7 8.3 17.9 20.8 17.9h67.6l-0.5-35.1h-41.3v-502.9h41.8v-39.1H123c-6.8 3.1-11 8.9-11 16.5z m61.5 21.2V639h-15.2v-506.2h15.2zM426 472.8h-41.1v27.3H426c7.6 0 13.7 6.1 13.7 13.7s-6.1 13.7-13.7 13.7h-28.1l26.6 49c3.4 6.2 1.3 14.1-4.5 17.8-5.9 3.5-13.3 1.5-16.7-4.8l-30.5-56.3c-1-1.9-1.5-3.8-1.6-5.7h-0.1c-0.1 1.9-0.6 3.9-1.6 5.7l-30.1 56.3c-3.3 6.2-10.8 8.3-16.5 4.8-5.7-3.5-7.8-11.6-4.4-17.8l26.2-49h-28.1c-7.6 0-13.7-6.1-13.7-13.7s6.1-13.7 13.7-13.7h41.1v-27.3h-41.1c-7.6 0-13.7-6.1-13.7-13.7s6.1-13.7 13.7-13.7h41.1v-28.7c0-6.8 6.1-12.3 13.7-12.3s13.7 5.5 13.7 12.3v28.7h41.1c7.6 0 13.7 6.1 13.7 13.7-0.1 7.6-6.4 13.7-13.9 13.7zM752.6 520H512v64h240.6v-64z m-96.7-52.1H512v-64h143.9v64z m96.7-116H301.1v-64h451.4v64zM655.9 236H303.4v-64h352.5v64z"  horiz-adv-x="1024" />

    
    <glyph glyph-name="gudingzichanhaocaigouzhi" unicode="&#58958;" d="M307.1 531.4l-0.2-209.7 159.8-55.3L639.4 319V531zM473.3 452.9c91.9 0 166.3 32.9 166.3 73.5s-74.5 73.5-166.3 73.5c-91.9 0-166.3-32.9-166.3-73.5s74.4-73.5 166.3-73.5zM473.2 287.8c-79.5 0-149.3 20-165.8 46.7-0.6-5-0.6-8.5-0.6-12.9 0-32.9 74.5-59.6 166.3-59.6 91.9 0 166.3 26.7 166.3 59.6 0 4.4 0.1 7.3 0 12.9-16.3-26.7-86.7-46.7-166.2-46.7zM473.2 350.3c-79.5 0-149.3 20-165.8 46.7-0.6-5-0.6-8.5-0.6-12.9 0-32.9 74.5-59.6 166.3-59.6 91.9 0 166.3 26.7 166.3 59.6 0 4.4 0.1 7.3 0 12.9-16.3-26.7-86.7-46.7-166.2-46.7zM473.2 414.7c-79.5 0-149.3 20-165.8 46.7-0.6-5-0.6-8.5-0.6-12.9 0-32.9 74.5-59.6 166.3-59.6 91.9 0 166.3 26.7 166.3 59.6 0 4.4 0.1 7.3 0 12.9-16.3-26.7-86.7-46.7-166.2-46.7zM98.3 589.6v-355.3l207.8-57.7 218.5 57.7V588.9zM311.4 488.9c117.9 0 213.4 42.2 213.4 94.3s-95.5 94.3-213.4 94.3C193.6 677.5 98 635.3 98 583.2s95.6-94.3 213.4-94.3zM311.4 196.5c102 0 192.3 25.7 213.4 59.9 0.1-7.1 0-10.8 0-16.5 0-42.2-95.5-76.5-213.4-76.5C193.5 163.5 98 197.7 98 239.9c0 5.7 0 10.1 0.7 16.5 21.1-34.2 110.7-59.9 212.7-59.9z m0 80.6c-102 0-191.6 25.7-212.7 59.9-0.7-6.4-0.7-10.8-0.7-16.5 0-42.2 95.5-76.5 213.4-76.5s213.4 34.2 213.4 76.5c0 5.7 0.1 9.4 0 16.5-21.1-34.2-111.4-59.9-213.4-59.9z m0 80.1c-102 0-191.6 25.7-212.7 59.9-0.7-6.4-0.7-10.8-0.7-16.5 0-42.2 95.5-76.5 213.4-76.5s213.4 34.2 213.4 76.5c0 5.7 0.1 9.4 0 16.5-21.1-34.2-111.4-59.9-213.4-59.9z m0 82.6c-102 0-191.6 25.7-212.7 59.9-0.7-6.4-0.7-10.8-0.7-16.5 0-42.2 95.5-76.5 213.4-76.5s213.4 34.2 213.4 76.5c0 5.7 0.1 9.4 0 16.5-21.1-34.2-111.4-59.9-213.4-59.9zM371.7 304.8h-45.4V335h45.4c8.4 0 15.1 6.7 15.1 15.1s-6.7 15.1-15.1 15.1h-31l29.4 54.1c3.8 6.9 1.5 15.6-5 19.6-6.5 3.9-14.7 1.6-18.4-5.3L313 371.4c-1.1-2-1.6-4.2-1.8-6.3h-0.1c-0.1 2.1-0.7 4.3-1.8 6.3L276 433.5c-3.7 6.9-11.9 9.1-18.2 5.3-6.3-3.9-8.6-12.8-4.9-19.6L282 365h-31c-8.4 0-15.1-6.7-15.1-15.1s6.7-15.1 15.1-15.1h45.4v-30.2H251c-8.4 0-15.1-6.7-15.1-15.1s6.7-15.1 15.1-15.1h45.4v-31.7c0-7.5 6.7-13.6 15.1-13.6s15.1 6.1 15.1 13.6v31.7H372c8.4 0 15.1 6.7 15.1 15.1-0.2 8.5-7.1 15.3-15.4 15.3zM675 333.9c-7.8-24.2-33.8-37.5-58-29.7-24.2 7.8-37.5 33.8-29.7 58 7.8 24.2 33.8 37.5 58 29.7 24.2-7.8 37.5-33.8 29.7-58z m79.8 22.1c-24.2 7.8-50.2-5.5-58-29.7-7.8-24.2 5.5-50.2 29.7-58s50.2 5.5 58 29.7c7.9 24.2-5.4 50.2-29.7 58z m-30.6 107.3c-24.2 7.8-50.2-5.5-58-29.7-7.8-24.2 5.5-50.2 29.7-58s50.2 5.5 58 29.7-5.5 50.2-29.7 58zM360.9 302.3h9.5l91.4-267.8h329.6l91.4 267.8H360.9zM465.2 277.3h319.6c11.2 0 20.3-9.1 20.3-20.3 0-11.2-9.1-20.3-20.3-20.3H465.2c-11.2 0-20.3 9.1-20.3 20.3 0 11.2 9.1 20.3 20.3 20.3zM509.8 116.2h232.3c11.1 0 20.3-9.2 20.3-20.4s-9.1-20.3-20.3-20.3H509.8c-11.1 0-20.3 9.1-20.3 20.3 0 11.1 9.2 20.4 20.3 20.4zM487.5 195.5h278.9c11.2 0 20.3-9.2 20.3-20.5 0-11.2-9.1-20.3-20.3-20.3H487.5c-11.2 0-20.2 9.1-20.2 20.3 0 11.3 9 20.5 20.2 20.5zM887.8 340.8H361.9c-21.7 0-39.6-8.9-39.6-19.8s17.9-19.8 39.6-19.8h525.9c21.8 0 39.6 8.9 39.6 19.8s-17.8 19.8-39.6 19.8zM638.7 319.5l-1.6-2.5c-4-6.2-12.4-8-18.7-4L436.7 430.3c-6.2 4-8 12.4-4 18.7l1.6 2.5c4 6.2 12.4 8 18.7 4l181.7-117.4c6.2-4 8-12.4 4-18.6z"  horiz-adv-x="1024" />

    
    <glyph glyph-name="shuben" unicode="&#58980;" d="M963.490909 253.672727L907.636364 318.836364l11.636363 139.636363 79.127273 79.127273-2.327273 4.654545-37.236363 55.854546h-16.290909l-37.236364 46.545454 11.636364 137.309091 79.127272 79.127273V879.709091l-875.054545-13.963636-65.163637-44.218182-32.581818-69.818182v-90.763636l55.854546-79.127273 34.909091-27.927273-53.527273-55.854545-34.909091-69.818182v-93.090909l55.854545-76.8 30.254546-25.6-55.854546-60.509091-32.581818-69.818182V11.636364l55.854546-79.127273 41.890909-34.909091 290.909091-11.636364 584.145454 6.981819-37.236363 34.90909-53.527273 67.49091 11.636364 137.30909 79.127272 79.127273-4.654545 6.981818h6.981818zM1024 188.509091v67.490909c-55.854545 13.963636-97.745455 67.490909-97.745455 130.327273 0 62.836364 41.890909 114.036364 97.745455 130.327272v67.49091c-55.854545 13.963636-97.745455 67.490909-97.745455 130.327272 0 62.836364 41.890909 114.036364 97.745455 130.327273V896H181.527273C81.454545 896 0 812.218182 0 709.818182c0-69.818182 37.236364-130.327273 90.763636-162.909091C37.236364 514.327273 0 453.818182 0 384s37.236364-130.327273 90.763636-162.909091C37.236364 188.509091 0 128 0 58.181818c0-102.4 81.454545-186.181818 181.527273-186.181818H1024v58.181818c-55.854545 13.963636-97.745455 67.490909-97.745455 130.327273 0 60.509091 41.890909 114.036364 97.745455 128zM48.872727 709.818182c0 76.8 60.509091 137.309091 132.654546 137.309091h756.363636c-37.236364-34.909091-60.509091-83.781818-60.509091-137.309091 0-53.527273 23.272727-104.727273 60.509091-137.309091H181.527273C107.054545 570.181818 48.872727 633.018182 48.872727 709.818182z m0-325.818182c0 76.8 60.509091 137.309091 132.654546 137.309091h756.363636c-37.236364-34.909091-60.509091-83.781818-60.509091-137.309091 0-53.527273 23.272727-104.727273 60.509091-137.309091H181.527273c-74.472727 0-132.654545 60.509091-132.654546 137.309091z m828.509091-325.818182c0-53.527273 23.272727-104.727273 60.509091-137.309091H181.527273c-74.472727 0-132.654545 62.836364-132.654546 137.309091 0 76.8 60.509091 137.309091 132.654546 137.309091h756.363636c-37.236364-32.581818-60.509091-81.454545-60.509091-137.309091zM197.818182 847.127273v-528.290909c0-9.309091 9.309091-13.963636 16.290909-11.636364l48.872727 23.272727 48.872727-23.272727c6.981818-4.654545 16.290909 2.327273 16.29091 11.636364V847.127273H197.818182zM225.745455 816.872727c-9.309091 0-13.963636-6.981818-13.963637-13.963636v-90.763636c0-9.309091 6.981818-13.963636 13.963637-13.963637 9.309091 0 13.963636 6.981818 13.963636 13.963637V800.581818c2.327273 9.309091-4.654545 16.290909-13.963636 16.290909zM225.745455 663.272727m-13.963637 0a13.963636 13.963636 0 1 1 27.927273 0 13.963636 13.963636 0 1 1-27.927273 0Z"  horiz-adv-x="1024" />

    
    <glyph glyph-name="rili" unicode="&#58983;" d="M74.472727 619.054545h875.054546v-616.727272H74.472727zM197.818182 353.745455c27.927273-2.327273 55.854545 0 83.781818 0 25.6 0 53.527273-2.327273 58.181818 27.927272v79.127273c0 23.272727 2.327273 51.2-30.254545 53.527273-27.927273 2.327273-55.854545 0-83.781818 0-25.6 0-53.527273 2.327273-58.181819-27.927273-4.654545-25.6 0-53.527273 0-79.127273 0-23.272727-2.327273-48.872727 30.254546-53.527272zM456.145455 353.745455c27.927273-2.327273 55.854545 0 83.781818 0 25.6 0 53.527273-2.327273 58.181818 27.927272v79.127273c0 23.272727 2.327273 51.2-30.254546 53.527273-27.927273 2.327273-55.854545 0-83.781818 0-25.6 0-53.527273 2.327273-58.181818-27.927273-4.654545-25.6 0-53.527273 0-79.127273 2.327273-23.272727 0-48.872727 30.254546-53.527272zM716.8 353.745455c27.927273-2.327273 55.854545 0 83.781818 0 25.6 0 53.527273-2.327273 58.181818 27.927272v79.127273c0 23.272727 2.327273 51.2-30.254545 53.527273-27.927273 2.327273-55.854545 0-83.781818 0-25.6 0-53.527273 2.327273-58.181818-27.927273-4.654545-25.6 0-53.527273 0-79.127273 0-23.272727-2.327273-48.872727 30.254545-53.527272zM309.527273 265.309091c-27.927273 2.327273-55.854545 0-83.781818 0-25.6 0-53.527273 2.327273-58.181819-27.927273-4.654545-25.6 0-53.527273 0-79.127273 0-18.618182-2.327273-51.2 25.6-53.527272 27.927273-4.654545 60.509091 0 88.436364 0 25.6 0 53.527273-2.327273 58.181818 27.927272v79.127273c-2.327273 23.272727 0 48.872727-30.254545 53.527273zM567.854545 265.309091c-27.927273 2.327273-55.854545 0-83.781818 0-25.6 0-53.527273 2.327273-58.181818-27.927273-4.654545-25.6 0-53.527273 0-79.127273 0-18.618182-2.327273-51.2 25.6-53.527272 27.927273-4.654545 60.509091 0 88.436364 0 25.6 0 53.527273-2.327273 58.181818 27.927272v79.127273c0 23.272727 2.327273 48.872727-30.254546 53.527273zM833.163636 265.309091c-27.927273 4.654545-60.509091 0-88.436363 0-25.6 0-53.527273 2.327273-58.181818-27.927273-4.654545-25.6 0-53.527273 0-79.127273 0-18.618182-2.327273-51.2 25.6-53.527272 27.927273-4.654545 60.509091 0 88.436363 0 25.6 0 53.527273-2.327273 58.181818 27.927272v79.127273c0 18.618182 2.327273 48.872727-25.6 53.527273zM930.909091 809.890909h-123.345455V756.363636c0-62.836364-107.054545-62.836364-107.054545 0V809.890909H321.163636V756.363636c0-62.836364-107.054545-62.836364-107.054545 0V809.890909H93.090909c-39.563636 0-69.818182-27.927273-69.818182-65.163636v-774.981818c0-34.909091 32.581818-65.163636 69.818182-65.163637h837.818182c39.563636 0 69.818182 27.927273 69.818182 65.163637V744.727273c2.327273 34.909091-30.254545 65.163636-69.818182 65.163636z m2.327273-768c0-25.6-23.272727-44.218182-51.2-44.218182H141.963636c-27.927273 0-51.2 20.945455-51.2 44.218182V539.927273c0 25.6 23.272727 44.218182 51.2 44.218182h740.072728c27.927273 0 51.2-20.945455 51.2-44.218182v-498.036364zM90.763636 765.672727c-9.309091 0-16.290909-6.981818-16.290909-16.290909v-65.163636c0-9.309091 6.981818-16.290909 16.290909-16.290909s16.290909 6.981818 16.290909 16.290909V749.381818c-2.327273 9.309091-9.309091 16.290909-16.290909 16.290909zM74.472727 637.672727a16.290909 13.963636 0 1 1 32.581818 0 16.290909 13.963636 0 1 1-32.581818 0ZM930.909091-116.363636H93.090909c-51.2 0-93.090909 37.236364-93.090909 86.109091V744.727273c0 46.545455 41.890909 86.109091 93.090909 86.109091h144.290909V756.363636c0-25.6 27.927273-25.6 32.581818-25.6 2.327273 0 32.581818 0 32.581819 25.6V828.509091h425.890909V756.363636c0-25.6 27.927273-25.6 32.581818-25.6 2.327273 0 32.581818 0 32.581818 25.6V828.509091H930.909091c25.6 0 46.545455-9.309091 65.163636-25.6 18.618182-13.963636 27.927273-34.909091 27.927273-58.181818v-774.981818c0-46.545455-41.890909-86.109091-93.090909-86.109091zM93.090909 788.945455c-27.927273 0-48.872727-20.945455-48.872727-44.218182v-774.981818c0-25.6 20.945455-44.218182 48.872727-44.218182h837.818182c27.927273 0 48.872727 20.945455 48.872727 44.218182V744.727273c0 11.636364-4.654545 23.272727-13.963636 30.254545-9.309091 9.309091-20.945455 13.963636-34.909091 13.963637h-100.072727V756.363636c0-20.945455-9.309091-39.563636-23.272728-51.2s-30.254545-16.290909-51.2-16.290909c-18.618182 0-37.236364 6.981818-51.2 16.290909-16.290909 11.636364-23.272727 30.254545-23.272727 51.2V788.945455H342.109091V756.363636c0-20.945455-9.309091-39.563636-23.272727-51.2s-30.254545-16.290909-51.2-16.290909c-18.618182 0-37.236364 6.981818-51.2 16.290909-16.290909 11.636364-23.272727 30.254545-23.272728 51.2V788.945455H93.090909z m788.945455-814.545455H141.963636c-39.563636 0-72.145455 30.254545-72.145454 65.163636V539.927273c0 37.236364 32.581818 65.163636 72.145454 65.163636h740.072728c39.563636 0 72.145455-30.254545 72.145454-65.163636v-498.036364c0-37.236364-32.581818-67.490909-72.145454-67.490909zM141.963636 565.527273c-16.290909 0-27.927273-11.636364-27.927272-25.6v-498.036364c0-13.963636 13.963636-25.6 27.927272-25.6h740.072728c16.290909 0 27.927273 11.636364 27.927272 25.6V539.927273c0 13.963636-13.963636 25.6-27.927272 25.6H141.963636zM269.963636 884.363636c-13.963636 0-23.272727-9.309091-23.272727-18.618181V756.363636c0-9.309091 11.636364-18.618182 23.272727-18.618181 13.963636 0 23.272727 9.309091 23.272728 18.618181V865.745455c2.327273 9.309091-9.309091 18.618182-23.272728 18.618181zM761.018182 884.363636c-13.963636 0-23.272727-9.309091-23.272727-18.618181V756.363636c0-9.309091 11.636364-18.618182 23.272727-18.618181 13.963636 0 23.272727 9.309091 23.272727 18.618181V865.745455c0 9.309091-9.309091 18.618182-23.272727 18.618181z"  horiz-adv-x="1024" />

    
    </font>
</defs>
</svg>
